<?xml version="1.0" encoding="UTF-8" standalone="no" ?>
<!DOCTYPE svg PUBLIC "-//W3C//DTD SVG 1.1//EN" "http://www.w3.org/Graphics/SVG/1.1/DTD/svg11.dtd">
<svg xmlns="http://www.w3.org/2000/svg" xmlns:xlink="http://www.w3.org/1999/xlink" version="1.1" width="240" height="240" viewBox="0 0 640 640" xml:space="preserve">
<desc>Created with Fabric.js 5.3.0</desc>
<defs>
</defs>
<g transform="matrix(1 0 0 1 320 320)" id="_HXSlHUwOnGXL5G0TmdvS"  >
<path style="stroke: rgb(207,107,196); stroke-width: 0; stroke-dasharray: none; stroke-linecap: butt; stroke-dashoffset: 0; stroke-linejoin: miter; stroke-miterlimit: 4; fill: rgb(255,255,255); fill-rule: nonzero; opacity: 1;" vector-effect="non-scaling-stroke"  transform=" translate(-227.7789040962, -265.9707844259)" d="M 222.30063 252.09334 L 222.30063 509.23731000000004 C 222.30063 521.50036 212.35946 531.4415300000001 200.09641000000002 531.4415300000001 L 118.30499000000002 531.4415300000001 C 105.83922000000001 531.4415300000001 95.73372000000002 521.33603 95.73372000000002 508.87026000000003 L 95.73372000000002 252.09334 L 16.032200000000017 252.09334 C 10.143580000000018 252.09334 4.728900000000017 248.86514000000003 1.9286900000000173 243.68492 C -0.8715199999999825 238.5047 -0.6065099999999828 232.2063 2.6189600000000173 227.27961 L 147.33724 6.231909999999999 C 149.88315 2.343199999999999 154.21793 -8.881784197001252e-16 158.86592000000002 -8.881784197001252e-16 C 163.51391 -8.881784197001252e-16 167.84869 2.343189999999999 170.39460000000003 6.231909999999999 L 317.05305 230.24309 C 319.8933 234.58139 320.12665999999996 240.12758 317.66087999999996 244.68913 C 315.19509999999997 249.25068000000002 310.42708999999996 252.09334 305.24173999999994 252.09334 z M 242.88496 285.95235 C 242.88496 278.21441000000004 249.1578 271.94157 256.89574 271.94157 L 441.54702999999995 271.94157 C 449.28496999999993 271.94157 455.55780999999996 278.21441 455.55780999999996 285.95235 L 455.55780999999996 332.2165 C 455.55780999999996 339.95444 449.28497 346.22728 441.54702999999995 346.22728 L 256.89573999999993 346.22728 C 249.15779999999992 346.22728 242.88495999999992 339.95444000000003 242.88495999999992 332.2165 z M 242.88496 378.8095 C 242.88496 371.07156000000003 249.1578 364.79872 256.89574 364.79872 L 441.54702999999995 364.79872 C 449.28496999999993 364.79872 455.55780999999996 371.07156 455.55780999999996 378.8095 L 455.55780999999996 425.07365000000004 C 455.55780999999996 432.81159 449.28497 439.08443000000005 441.54702999999995 439.08443000000005 L 256.89573999999993 439.08443000000005 C 249.15779999999992 439.08443000000005 242.88495999999992 432.8115900000001 242.88495999999992 425.07365000000004 z M 242.88496 471.66664 C 242.88496 463.9287 249.1578 457.65585999999996 256.89574 457.65585999999996 L 441.54702999999995 457.65585999999996 C 449.28496999999993 457.65585999999996 455.55780999999996 463.92869999999994 455.55780999999996 471.66664 L 455.55780999999996 517.93079 C 455.55780999999996 525.66873 449.28497 531.94157 441.54702999999995 531.94157 L 256.89573999999993 531.94157 C 249.15779999999992 531.94157 242.88495999999992 525.66873 242.88495999999992 517.93079 z" stroke-linecap="round" />
</g>
</svg>