<?xml version="1.0" encoding="UTF-8" standalone="no" ?>
<!DOCTYPE svg PUBLIC "-//W3C//DTD SVG 1.1//EN" "http://www.w3.org/Graphics/SVG/1.1/DTD/svg11.dtd">
<svg xmlns="http://www.w3.org/2000/svg" xmlns:xlink="http://www.w3.org/1999/xlink" version="1.1" width="2140" height="2140" viewBox="0 0 640 640" xml:space="preserve">
<desc>Created with Fabric.js 4.6.0</desc>
<defs>
</defs>
<g transform="matrix(2.06 0 0 2.06 324.42 292.81)" id="f4soJCE1aj8TPRuKqKPH5"  >
<path style="stroke: rgb(228,96,32); stroke-width: 0; stroke-dasharray: none; stroke-linecap: butt; stroke-dashoffset: 0; stroke-linejoin: miter; stroke-miterlimit: 4; fill: rgb(108,59,244); fill-rule: nonzero; opacity: 1;" vector-effect="non-scaling-stroke"  transform=" translate(0, 0)" d="M -74.67985 93.43299 L -83.75539 100.28782000000001 L -83.49646 -100.47171 L -83.49646 -100.47171 C -83.49263 -103.44356 -81.10749 -105.86387 -78.13602 -105.91121 L 5.75215 -107.24772 L 33.66684 -99.71217 L 64.21126 -73.89973 L 78.83681999999999 -46.741890000000005 L 84.00679999999998 -10.380330000000008 L 78.83681999999999 37.82336999999999 L 63.20480999999999 69.33156 L 44.614699999999985 89.0556 L 19.637429999999984 100.28783 L -9.733250000000016 105.86182 L -46.33317000000001 106.36931 L -84.00679000000001 107.24773 L -70.59857000000001 97.82338 L -51.89795000000001 97.82338 C -51.89795000000001 97.82338 -14.386510000000008 99.54297 -1.1631900000000073 97.82338 C 16.371719999999993 95.5431 24.90065999999999 90.83288 24.90065999999999 90.83288 L 42.44075999999999 77.82338 L 58.836809999999986 59.822050000000004 L 68.49103999999998 29.652920000000005 L 71.68573999999998 -9.533529999999995 L 66.75424999999998 -42.17662 L 55.97088999999998 -65.76934 L 33.66682999999998 -85.30733000000001 L 5.066719999999982 -98.07651000000001 L -73.67149 -99.71216000000001 z" stroke-linecap="round" />
</g>
<g transform="matrix(2.06 0 0 2.06 317.94 284.97)" id="9CsiwX5N_FI3XruyVIDut"  >
<path style="stroke: rgb(228,96,32); stroke-width: 0; stroke-dasharray: none; stroke-linecap: butt; stroke-dashoffset: 0; stroke-linejoin: miter; stroke-miterlimit: 4; fill: rgb(59,22,163); fill-rule: nonzero; opacity: 1;" vector-effect="non-scaling-stroke"  transform=" translate(0, 0)" d="M -61.35197 -49.0995 L -72.84360000000001 -9.71651 L -61.76484000000001 21.3981 L -74.82518 51.41924 L -69.20387000000001 94.14389 L -78.27941000000001 100.99871999999999 L -87.85534000000001 48.988429999999994 L -72.84360000000001 24.378819999999994 L -83.70701000000001 -11.218170000000004 L -72.84360000000001 -49.57628000000001 L -92.84360000000001 -107.95863000000001 L -10.517220000000009 -96.58422000000002 L 41.98641999999999 -105.16242000000001 L 56.891029999999986 -68.44951 L 92.80031 -38.601910000000004 L 81.4259 1.3980899999999963 L 92.8436 35.69065 L 63.46751999999999 63.88131 L 49.956709999999994 101.39809 L 25.113419999999994 100.99871 L -4.257260000000006 106.5727 L -40.85718 107.08019 L -78.5308 107.95861000000001 L -65.12258 98.53426 L -46.42196 98.53426 C -46.42196 98.53426 -8.910519999999998 100.25385 4.312800000000003 98.53426 C 21.847710000000003 96.25398 24.215510000000002 88.22622 24.215510000000002 88.22622 L 40.80774 92.27833 L 53.412330000000004 57.21539 L 80.60211000000001 33.68133 L 67.11312000000001 -5.568729999999995 L 81.23499000000001 -33.882799999999996 L 47.22888000000001 -62.72512999999999 L 29.482780000000012 -95.97085999999999 L -1.3056299999999865 -87.88695999999999 L -68.19549999999998 -93.78800999999999 z" stroke-linecap="round" />
</g>
<g transform="matrix(2.06 0 0 2.06 323.75 287.84)" id="tCBdeJAVyRXE4yC4fSTHT"  >
<path style="stroke: rgb(228,96,32); stroke-width: 0; stroke-dasharray: none; stroke-linecap: butt; stroke-dashoffset: 0; stroke-linejoin: miter; stroke-miterlimit: 4; fill: rgb(91,31,193); fill-rule: nonzero; opacity: 1;" vector-effect="non-scaling-stroke"  transform=" translate(0, 0)" d="M -83.6052 -49.96879 L -66.18688 -7.742199999999997 L -81.17447 20.054880000000004 L -64.37699 44.817910000000005 L -71.55189 92.32673 L -80.62743 99.18155999999999 C -80.62743 99.18155999999999 -72.7591 69.05136999999999 -74.71769 49.06700999999999 C -76.67627 29.08264999999999 -88.46177 19.244129999999988 -88.46177 19.244129999999988 L -74.71769 -4.978450000000013 L -91.87409000000001 -48.549830000000014 L -80.02575000000002 -115.18209000000002 L -12.865250000000017 -98.40138000000002 L 39.63838999999998 -106.97958000000001 L 67.33919999999998 -74.23423000000001 L 70.54705999999997 -35.67973000000001 L 91.87406999999997 -13.215280000000014 L 68.69460999999998 27.712349999999986 L 74.38961999999998 61.590209999999985 L 42.39538999999998 78.18281999999999 L 22.76536999999998 99.18153999999998 L -8.50105000000002 115.18206999999998 L -32.77870000000002 100.52368999999999 L -52.39831000000002 109.92412999999999 L -80.87886000000003 106.14144999999999 L -67.47064000000003 96.71709999999999 L -52.561490000000035 103.87003999999999 L -29.831260000000036 90.16066 L -8.461800000000036 103.82611 L 21.867449999999963 86.40907 L 40.355409999999964 68.66024 L 61.96472999999996 58.18284 L 59.29668999999996 24.281239999999997 L 77.56124999999996 -10.229480000000002 L 56.61202999999996 -32.856350000000006 L 59.59505999999996 -68.33375000000001 L 27.13469999999996 -97.78801000000001 L -3.6537100000000393 -89.70411000000001 L -74.71775000000005 -102.71417000000001 z" stroke-linecap="round" />
</g>
<g transform="matrix(2.05 0.14 -0.14 2.05 393.06 97.77)" id="Rv1dR05koZJat6YDFbS7X"  >
<path style="stroke: rgb(128,106,137); stroke-width: 0; stroke-dasharray: none; stroke-linecap: butt; stroke-dashoffset: 0; stroke-linejoin: miter; stroke-miterlimit: 4; fill: rgb(97,40,255); fill-rule: nonzero; opacity: 1;" vector-effect="non-scaling-stroke"  transform=" translate(0, 0)" d="M -27.62287 -38.51181 L -13.512509999999999 -33.014649999999996 C -6.021269999999999 -30.097049999999996 -0.12659999999999805 -26.460119999999996 5.8383600000000015 -21.070289999999996 C 18.447720000000004 -9.676699999999997 25.28572 4.391740000000002 26.44623 21.346480000000003 L 27.62288 38.51182 L 5.74071 25.12586 L 5.74071 25.12586 C -6.460330000000001 17.662129999999998 -15.367920000000002 5.8394200000000005 -19.17729 -7.946859999999997 z" stroke-linecap="round" />
</g>
<g transform="matrix(1.7 1.15 -1.15 1.7 439.53 132.08)" id="2mGMZ6QRpVe-GZivE96f1"  >
<path style="stroke: rgb(128,106,137); stroke-width: 0; stroke-dasharray: none; stroke-linecap: butt; stroke-dashoffset: 0; stroke-linejoin: miter; stroke-miterlimit: 4; fill: rgb(85,35,223); fill-rule: nonzero; opacity: 1;" vector-effect="non-scaling-stroke"  transform=" translate(0, 0)" d="M -29.96858 -37.09532 L -13.213049999999999 -30.56765 L -13.213049999999999 -30.56765 C 8.20343 -22.22415 23.58288 -3.1412900000000015 27.185489999999998 19.55894 L 29.96858 37.09532 L 6.8355 25.83958 L 6.8355 25.83958 C -7.424329999999999 18.90125 -18.01408 6.168550000000003 -22.23769 -9.116879999999998 z" stroke-linecap="round" />
</g>
<g transform="matrix(1.32 1.58 -1.58 1.32 467.21 176.62)" id="NZYMvnkYsrP8c-797ol8t"  >
<path style="stroke: rgb(128,106,137); stroke-width: 0; stroke-dasharray: none; stroke-linecap: butt; stroke-dashoffset: 0; stroke-linejoin: miter; stroke-miterlimit: 4; fill: rgb(97,40,255); fill-rule: nonzero; opacity: 1;" vector-effect="non-scaling-stroke"  transform=" translate(0, 0)" d="M -27.62287 -38.51181 L -13.512509999999999 -33.014649999999996 C -6.021269999999999 -30.097049999999996 -0.12659999999999805 -26.460119999999996 5.8383600000000015 -21.070289999999996 C 18.447720000000004 -9.676699999999997 25.28572 4.391740000000002 26.44623 21.346480000000003 L 27.62288 38.51182 L 5.74071 25.12586 L 5.74071 25.12586 C -6.460330000000001 17.662129999999998 -15.367920000000002 5.8394200000000005 -19.17729 -7.946859999999997 z" stroke-linecap="round" />
</g>
<g transform="matrix(-0.97 -1.82 1.82 -0.97 484.51 226.92)" id="dOW88EAkwNJwVftwvNICO"  >
<path style="stroke: rgb(128,106,137); stroke-width: 0; stroke-dasharray: none; stroke-linecap: butt; stroke-dashoffset: 0; stroke-linejoin: miter; stroke-miterlimit: 4; fill: rgb(86,40,216); fill-rule: nonzero; opacity: 1;" vector-effect="non-scaling-stroke"  transform=" translate(0, 0)" d="M -31.22398 -40.37677 L -9.574360000000002 -29.009439999999998 L -9.574360000000002 -29.009439999999998 C 7.595049999999997 -19.99449 20.103049999999996 -4.0829299999999975 24.80875 14.729690000000005 L 31.22399 40.376780000000004 L 5.469000000000001 28.611120000000003 L 5.469000000000001 28.611120000000003 C -10.24974 21.430320000000002 -21.58262 7.160630000000005 -25.017609999999998 -9.775829999999996 z" stroke-linecap="round" />
</g>
<g transform="matrix(-0.36 -2.03 2.03 -0.36 490.8 280.12)" id="HsXif1J2y1SmFx5ElXAJn"  >
<path style="stroke: rgb(128,106,137); stroke-width: 0; stroke-dasharray: none; stroke-linecap: butt; stroke-dashoffset: 0; stroke-linejoin: miter; stroke-miterlimit: 4; fill: rgb(108,59,244); fill-rule: nonzero; opacity: 1;" vector-effect="non-scaling-stroke"  transform=" translate(0, 0)" d="M -34.2246 -34.2246 L -11.845340000000004 -25.506010000000003 L -11.845340000000004 -25.506010000000003 C 6.539629999999995 -18.34353 20.891179999999995 -3.525660000000002 27.46231 15.078859999999999 L 34.224599999999995 34.224599999999995 L 8.110489999999995 26.291199999999996 L 8.110489999999995 26.291199999999996 C -9.298710000000003 21.002329999999997 -22.787340000000004 7.167379999999998 -27.633270000000007 -10.370270000000005 z" stroke-linecap="round" />
</g>
<g transform="matrix(-0.36 -2.03 2.03 -0.36 133.56 552.3)" id="qob0GvgeKoq8LFwnDIRT_"  >
<path style="stroke: rgb(128,106,137); stroke-width: 0; stroke-dasharray: none; stroke-linecap: butt; stroke-dashoffset: 0; stroke-linejoin: miter; stroke-miterlimit: 4; fill: rgb(108,59,244); fill-rule: nonzero; opacity: 1;" vector-effect="non-scaling-stroke"  transform=" translate(0, 0)" d="M -34.2246 -34.2246 L -11.845340000000004 -25.506010000000003 L -11.845340000000004 -25.506010000000003 C 6.539629999999995 -18.34353 20.891179999999995 -3.525660000000002 27.46231 15.078859999999999 L 34.224599999999995 34.224599999999995 L 8.110489999999995 26.291199999999996 L 8.110489999999995 26.291199999999996 C -9.298710000000003 21.002329999999997 -22.787340000000004 7.167379999999998 -27.633270000000007 -10.370270000000005 z" stroke-linecap="round" />
</g>
<g transform="matrix(0.21 2.05 -2.05 0.21 485.58 328.97)" id="CLiJb4qFQ7gQhgd5Ri8Wf"  >
<path style="stroke: rgb(128,106,137); stroke-width: 0; stroke-dasharray: none; stroke-linecap: butt; stroke-dashoffset: 0; stroke-linejoin: miter; stroke-miterlimit: 4; fill: rgb(85,35,223); fill-rule: nonzero; opacity: 1;" vector-effect="non-scaling-stroke"  transform=" translate(0, 0)" d="M -29.96858 -37.09532 L -13.213049999999999 -30.56765 L -13.213049999999999 -30.56765 C 8.20343 -22.22415 23.58288 -3.1412900000000015 27.185489999999998 19.55894 L 29.96858 37.09532 L 6.8355 25.83958 L 6.8355 25.83958 C -7.424329999999999 18.90125 -18.01408 6.168550000000003 -22.23769 -9.116879999999998 z" stroke-linecap="round" />
</g>
<g transform="matrix(-0.07 2.06 -2.06 -0.07 480.41 370.1)" id="2-iT3rx54Sw3wtc0YJrtd"  >
<path style="stroke: rgb(128,106,137); stroke-width: 0; stroke-dasharray: none; stroke-linecap: butt; stroke-dashoffset: 0; stroke-linejoin: miter; stroke-miterlimit: 4; fill: rgb(97,40,255); fill-rule: nonzero; opacity: 1;" vector-effect="non-scaling-stroke"  transform=" translate(0, 0)" d="M -27.62287 -38.51181 L -13.512509999999999 -33.014649999999996 C -6.021269999999999 -30.097049999999996 -0.12659999999999805 -26.460119999999996 5.8383600000000015 -21.070289999999996 C 18.447720000000004 -9.676699999999997 25.28572 4.391740000000002 26.44623 21.346480000000003 L 27.62288 38.51182 L 5.74071 25.12586 L 5.74071 25.12586 C -6.460330000000001 17.662129999999998 -15.367920000000002 5.8394200000000005 -19.17729 -7.946859999999997 z" stroke-linecap="round" />
</g>
<g transform="matrix(1.09 0 0 1.09 439.46 415.06)" id="Nfcdy0rrj4PVRjnkISakX"  >
<path style="stroke: rgb(158,205,133); stroke-width: 0; stroke-dasharray: none; stroke-linecap: butt; stroke-dashoffset: 0; stroke-linejoin: miter; stroke-miterlimit: 4; fill: rgb(73,31,188); fill-rule: nonzero; opacity: 1;" vector-effect="non-scaling-stroke"  transform=" translate(0, 0)" d="M 0 -34.2246 C 18.89198 -34.2246 34.2246 -18.891980000000004 34.2246 0 C 34.2246 18.89198 18.891980000000004 34.2246 0 34.2246 C -18.89198 34.2246 -34.2246 18.891980000000004 -34.2246 0 C -34.2246 -18.89198 -18.891980000000004 -34.2246 0 -34.2246 z" stroke-linecap="round" />
</g>
<g transform="matrix(1.09 0 0 1.09 179.24 489.66)" id="NhJFetHeMisRN4tgx_FAX"  >
<path style="stroke: rgb(158,205,133); stroke-width: 0; stroke-dasharray: none; stroke-linecap: butt; stroke-dashoffset: 0; stroke-linejoin: miter; stroke-miterlimit: 4; fill: rgb(73,31,188); fill-rule: nonzero; opacity: 1;" vector-effect="non-scaling-stroke"  transform=" translate(0, 0)" d="M 0 -34.2246 C 18.89198 -34.2246 34.2246 -18.891980000000004 34.2246 0 C 34.2246 18.89198 18.891980000000004 34.2246 0 34.2246 C -18.89198 34.2246 -34.2246 18.891980000000004 -34.2246 0 C -34.2246 -18.89198 -18.891980000000004 -34.2246 0 -34.2246 z" stroke-linecap="round" />
</g>
<g transform="matrix(1.09 0 0 1.09 156.17 78.37)" id="GDNdMaichGm85v5feSANA"  >
<path style="stroke: rgb(158,205,133); stroke-width: 0; stroke-dasharray: none; stroke-linecap: butt; stroke-dashoffset: 0; stroke-linejoin: miter; stroke-miterlimit: 4; fill: rgb(73,31,188); fill-rule: nonzero; opacity: 1;" vector-effect="non-scaling-stroke"  transform=" translate(0, 0)" d="M 0 -34.2246 C 18.89198 -34.2246 34.2246 -18.891980000000004 34.2246 0 C 34.2246 18.89198 18.891980000000004 34.2246 0 34.2246 C -18.89198 34.2246 -34.2246 18.891980000000004 -34.2246 0 C -34.2246 -18.89198 -18.891980000000004 -34.2246 0 -34.2246 z" stroke-linecap="round" />
</g>
<g transform="matrix(-0.54 0.12 0.19 0.81 242.55 43.87)" id="S6T6PhoYClcA9GwYZcRpG"  >
<path style="stroke: none; stroke-width: 1; stroke-dasharray: none; stroke-linecap: butt; stroke-dashoffset: 0; stroke-linejoin: miter; stroke-miterlimit: 4; fill: rgb(73,31,188); fill-rule: nonzero; opacity: 1;" vector-effect="non-scaling-stroke"  transform=" translate(0, 0)" d="M 8.53668 -22.35605 C 12.70703 -11.14871 14.48351 0.38933000000000106 13.814430000000002 11.922239999999999 L 13.124330000000002 23.81731 L 13.124330000000002 23.81731 C 12.697880000000001 31.16802 8.270270000000004 38.16974 0.6560200000000016 43.53442 L 0.6560200000000016 43.53442 L -0.7615399999999983 42.61165 L -0.7615399999999983 42.61165 C -8.05933 37.86109 -12.338349999999998 31.448189999999997 -12.724749999999998 24.682599999999997 L -13.806859999999999 5.735719999999997 L -13.875759999999998 4.529429999999997 L -13.875759999999998 4.529429999999997 C -14.278399999999998 -2.5203700000000033 -13.081479999999997 -9.570270000000004 -10.324839999999998 -16.385700000000003 L 0.6560200000000016 -43.53441000000001 z" stroke-linecap="round" />
</g>
<g transform="matrix(-0.55 -0.09 -0.13 0.83 301.89 44.5)" id="SA_z_zL20vvqE4SJ_CKCs"  >
<path style="stroke: none; stroke-width: 1; stroke-dasharray: none; stroke-linecap: butt; stroke-dashoffset: 0; stroke-linejoin: miter; stroke-miterlimit: 4; fill: rgb(73,31,188); fill-rule: nonzero; opacity: 1;" vector-effect="non-scaling-stroke"  transform=" translate(0, 0)" d="M 14.17852 -6.61822 L 12.47105 22.813219999999998 L 12.47105 22.813219999999998 C 12.05021 30.06722 7.67566 36.97868 0.14841999999999977 42.28206 L 0.011549999999999783 42.37849 L -1.5346200000000003 41.372 L -1.5346200000000003 41.372 C -8.751090000000001 36.674369999999996 -12.97991 30.34317 -13.36129 23.66566 L -14.10518 10.640749999999999 L -14.10518 10.640749999999999 C -14.77547 -1.0954700000000006 -10.84263 -12.747460000000002 -2.6859100000000016 -23.191630000000004 L 12.298709999999998 -42.37848 z" stroke-linecap="round" />
</g>
<g transform="matrix(-0.47 -0.29 -0.45 0.72 359.66 55.22)" id="smZ5AIhp4nAOB1z9H6ogS"  >
<path style="stroke: none; stroke-width: 1; stroke-dasharray: none; stroke-linecap: butt; stroke-dashoffset: 0; stroke-linejoin: miter; stroke-miterlimit: 4; fill: rgb(73,31,188); fill-rule: nonzero; opacity: 1;" vector-effect="non-scaling-stroke"  transform=" translate(0, 0)" d="M -5.00165 -31.96407 C 8.40253 -14.791139999999999 14.85654 4.36768 13.737150000000002 23.662370000000003 L 13.737150000000002 23.662370000000003 L 13.737150000000002 23.662370000000003 C 13.316310000000001 30.91637 8.941760000000002 37.827830000000006 1.4145200000000013 43.13121 L 1.2776500000000013 43.22764 L -0.26851999999999876 42.22115 L -0.26851999999999876 42.22115 C -7.484989999999999 37.523520000000005 -11.713809999999999 31.192320000000002 -12.095189999999999 24.51481 L -13.8615 -6.41169 L -13.79333 -43.22763 z" stroke-linecap="round" />
</g>
<g transform="matrix(-0.52 0.18 -0.27 -0.8 229.86 113.61)" id="T5VizoI1sjakz1UxBdccB"  >
<path style="stroke: none; stroke-width: 1; stroke-dasharray: none; stroke-linecap: butt; stroke-dashoffset: 0; stroke-linejoin: miter; stroke-miterlimit: 4; fill: rgb(73,31,188); fill-rule: nonzero; opacity: 1;" vector-effect="non-scaling-stroke"  transform=" translate(0, 0)" d="M 8.62465 -22.11297 C 12.735140000000001 -11.066500000000001 14.48601 0.3035299999999985 13.82666 11.66853 L 13.11304 23.96915 L 13.11304 23.96915 C 12.6922 31.223149999999997 8.31765 38.134609999999995 0.7904099999999996 43.43799 L 0.6535399999999996 43.53442 L -0.8926300000000005 42.52793 L -0.8926300000000005 42.52793 C -8.109100000000002 37.830299999999994 -12.33792 31.4991 -12.7193 24.821589999999997 L -13.80935 5.735709999999997 L -13.88709 4.374489999999997 L -13.88709 4.374489999999997 C -14.28388 -2.572890000000003 -13.10415 -9.520360000000004 -10.3869 -16.23842 L 0.6535399999999996 -43.53443 z" stroke-linecap="round" />
</g>
<g transform="matrix(-0.55 0.09 -0.13 -0.83 276.99 105.18)" id="k2MxXHVoXPkHKsabXdvBI"  >
<path style="stroke: none; stroke-width: 1; stroke-dasharray: none; stroke-linecap: butt; stroke-dashoffset: 0; stroke-linejoin: miter; stroke-miterlimit: 4; fill: rgb(73,31,188); fill-rule: nonzero; opacity: 1;" vector-effect="non-scaling-stroke"  transform=" translate(0, 0)" d="M 14.17852 -6.61822 L 12.47105 22.813219999999998 L 12.47105 22.813219999999998 C 12.05021 30.06722 7.67566 36.97868 0.14841999999999977 42.28206 L 0.011549999999999783 42.37849 L -1.5346200000000003 41.372 L -1.5346200000000003 41.372 C -8.751090000000001 36.674369999999996 -12.97991 30.34317 -13.36129 23.66566 L -14.10518 10.640749999999999 L -14.10518 10.640749999999999 C -14.77547 -1.0954700000000006 -10.84263 -12.747460000000002 -2.6859100000000016 -23.191630000000004 L 12.298709999999998 -42.37848 z" stroke-linecap="round" />
</g>
<g transform="matrix(-0.52 0.18 -0.27 -0.8 332.66 109.08)" id="8MGUAL-jhYvw2l88NkEoO"  >
<path style="stroke: none; stroke-width: 1; stroke-dasharray: none; stroke-linecap: butt; stroke-dashoffset: 0; stroke-linejoin: miter; stroke-miterlimit: 4; fill: rgb(73,31,188); fill-rule: nonzero; opacity: 1;" vector-effect="non-scaling-stroke"  transform=" translate(0, 0)" d="M -5.00165 -31.96407 C 8.40253 -14.791139999999999 14.85654 4.36768 13.737150000000002 23.662370000000003 L 13.737150000000002 23.662370000000003 L 13.737150000000002 23.662370000000003 C 13.316310000000001 30.91637 8.941760000000002 37.827830000000006 1.4145200000000013 43.13121 L 1.2776500000000013 43.22764 L -0.26851999999999876 42.22115 L -0.26851999999999876 42.22115 C -7.484989999999999 37.523520000000005 -11.713809999999999 31.192320000000002 -12.095189999999999 24.51481 L -13.8615 -6.41169 L -13.79333 -43.22763 z" stroke-linecap="round" />
</g>
<g transform="matrix(0.47 -0.29 -0.45 -0.72 181.83 123.33)" id="wTzRb6_hAMtYxHNn4ZpmA"  >
<path style="stroke: none; stroke-width: 1; stroke-dasharray: none; stroke-linecap: butt; stroke-dashoffset: 0; stroke-linejoin: miter; stroke-miterlimit: 4; fill: rgb(73,31,188); fill-rule: nonzero; opacity: 1;" vector-effect="non-scaling-stroke"  transform=" translate(0, 0)" d="M 8.62465 -22.11297 C 12.735140000000001 -11.066500000000001 14.48601 0.3035299999999985 13.82666 11.66853 L 13.11304 23.96915 L 13.11304 23.96915 C 12.6922 31.223149999999997 8.31765 38.134609999999995 0.7904099999999996 43.43799 L 0.6535399999999996 43.53442 L -0.8926300000000005 42.52793 L -0.8926300000000005 42.52793 C -8.109100000000002 37.830299999999994 -12.33792 31.4991 -12.7193 24.821589999999997 L -13.8871 4.374499999999998 L -13.8871 4.374499999999998 C -14.28389 -2.5728800000000023 -13.10416 -9.520350000000002 -10.38691 -16.238410000000002 L 0.6535299999999999 -43.53442 z" stroke-linecap="round" />
</g>
<g transform="matrix(-0.52 0.18 0.27 0.8 147.56 52.69)" id="j1-6OGa2GzTWkaHIxOAY0"  >
<path style="stroke: none; stroke-width: 1; stroke-dasharray: none; stroke-linecap: butt; stroke-dashoffset: 0; stroke-linejoin: miter; stroke-miterlimit: 4; fill: rgb(73,31,188); fill-rule: nonzero; opacity: 1;" vector-effect="non-scaling-stroke"  transform=" translate(0, 0)" d="M 8.62465 -22.11297 C 12.735140000000001 -11.066500000000001 14.48601 0.3035299999999985 13.82666 11.66853 L 13.11304 23.96915 L 13.11304 23.96915 C 12.6922 31.223149999999997 8.31765 38.134609999999995 0.7904099999999996 43.43799 L 0.6535399999999996 43.53442 L -0.8926300000000005 42.52793 L -0.8926300000000005 42.52793 C -8.109100000000002 37.830299999999994 -12.33792 31.4991 -12.7193 24.821589999999997 L -13.8871 4.374499999999998 L -13.8871 4.374499999999998 C -14.28389 -2.5728800000000023 -13.10416 -9.520350000000002 -10.38691 -16.238410000000002 L 0.6535299999999999 -43.53442 z" stroke-linecap="round" />
</g>
<g transform="matrix(-0.55 0.04 0.06 0.84 193.68 44.47)" id="m4eLhpM3ffk_L4F7VCREA"  >
<path style="stroke: none; stroke-width: 1; stroke-dasharray: none; stroke-linecap: butt; stroke-dashoffset: 0; stroke-linejoin: miter; stroke-miterlimit: 4; fill: rgb(73,31,188); fill-rule: nonzero; opacity: 1;" vector-effect="non-scaling-stroke"  transform=" translate(0, 0)" d="M 8.62465 -22.11297 C 12.735140000000001 -11.066500000000001 14.48601 0.3035299999999985 13.82666 11.66853 L 13.11304 23.96915 L 13.11304 23.96915 C 12.6922 31.223149999999997 8.31765 38.134609999999995 0.7904099999999996 43.43799 L 0.6535399999999996 43.53442 L -0.8926300000000005 42.52793 L -0.8926300000000005 42.52793 C -8.109100000000002 37.830299999999994 -12.33792 31.4991 -12.7193 24.821589999999997 L -13.8871 4.374499999999998 L -13.8871 4.374499999999998 C -14.28389 -2.5728800000000023 -13.10416 -9.520350000000002 -10.38691 -16.238410000000002 L 0.6535299999999999 -43.53442 z" stroke-linecap="round" />
</g>
<g transform="matrix(0.15 0.67 0.82 -0.19 127.02 351.34)" id="Aaea-0EUvTEaqyCk_o2A6"  >
<path style="stroke: none; stroke-width: 1; stroke-dasharray: none; stroke-linecap: butt; stroke-dashoffset: 0; stroke-linejoin: miter; stroke-miterlimit: 4; fill: rgb(73,31,188); fill-rule: nonzero; opacity: 1;" vector-effect="non-scaling-stroke"  transform=" translate(0, 0)" d="M 7.40102 -25.56931 C 12.3524 -12.263050000000002 14.471160000000001 1.6367999999999974 13.66533 15.526739999999997 L 13.259830000000001 22.516289999999998 L 13.259830000000001 22.516289999999998 C 12.78941 30.62476 8.258510000000001 38.22031 0.7264700000000008 43.527069999999995 L 0.7160500000000009 43.534409999999994 L -0.885309999999999 42.491989999999994 L -0.885309999999999 42.491989999999994 C -7.989789999999998 37.867259999999995 -12.305639999999999 30.969799999999992 -12.72858 23.564439999999994 L -13.74683 5.735709999999994 L -13.74683 5.735709999999994 L -13.74683 5.735709999999994 C -14.19389 -2.091880000000006 -12.879959999999999 -9.920090000000005 -9.87002 -17.361760000000007 L 0.7160600000000006 -43.53443000000001 z" stroke-linecap="round" />
</g>
<g transform="matrix(-0.09 0.55 0.83 0.13 130.45 282.97)" id="dHAwj4CBlH7RBfKGUMvok"  >
<path style="stroke: none; stroke-width: 1; stroke-dasharray: none; stroke-linecap: butt; stroke-dashoffset: 0; stroke-linejoin: miter; stroke-miterlimit: 4; fill: rgb(73,31,188); fill-rule: nonzero; opacity: 1;" vector-effect="non-scaling-stroke"  transform=" translate(0, 0)" d="M 14.17852 -6.61822 L 12.47105 22.813219999999998 L 12.47105 22.813219999999998 C 12.05021 30.06722 7.67566 36.97868 0.14841999999999977 42.28206 L 0.011549999999999783 42.37849 L -1.5346200000000003 41.372 L -1.5346200000000003 41.372 C -8.751090000000001 36.674369999999996 -12.97991 30.34317 -13.36129 23.66566 L -14.10518 10.640749999999999 L -14.10518 10.640749999999999 C -14.77547 -1.0954700000000006 -10.84263 -12.747460000000002 -2.6859100000000016 -23.191630000000004 L 12.298709999999998 -42.37848 z" stroke-linecap="round" />
</g>
<g transform="matrix(0.18 0.52 -0.8 0.27 188.52 356.32)" id="0wYQX5wvyjfxaeW1BPKje"  >
<path style="stroke: none; stroke-width: 1; stroke-dasharray: none; stroke-linecap: butt; stroke-dashoffset: 0; stroke-linejoin: miter; stroke-miterlimit: 4; fill: rgb(73,31,188); fill-rule: nonzero; opacity: 1;" vector-effect="non-scaling-stroke"  transform=" translate(0, 0)" d="M 8.62465 -22.11297 C 12.735140000000001 -11.066500000000001 14.48601 0.3035299999999985 13.82666 11.66853 L 13.11304 23.96915 L 13.11304 23.96915 C 12.6922 31.223149999999997 8.31765 38.134609999999995 0.7904099999999996 43.43799 L 0.6535399999999996 43.53442 L -0.8926300000000005 42.52793 L -0.8926300000000005 42.52793 C -8.109100000000002 37.830299999999994 -12.33792 31.4991 -12.7193 24.821589999999997 L -13.80935 5.735709999999997 L -13.88709 4.374489999999997 L -13.88709 4.374489999999997 C -14.28388 -2.572890000000003 -13.10415 -9.520360000000004 -10.3869 -16.23842 L 0.6535399999999996 -43.53443 z" stroke-linecap="round" />
</g>
<g transform="matrix(0.09 0.55 -0.83 0.13 185.93 315.04)" id="-_yyNZq_l1S8rYThu2LZk"  >
<path style="stroke: none; stroke-width: 1; stroke-dasharray: none; stroke-linecap: butt; stroke-dashoffset: 0; stroke-linejoin: miter; stroke-miterlimit: 4; fill: rgb(73,31,188); fill-rule: nonzero; opacity: 1;" vector-effect="non-scaling-stroke"  transform=" translate(0, 0)" d="M 14.17852 -6.61822 L 12.47105 22.813219999999998 L 12.47105 22.813219999999998 C 12.05021 30.06722 7.67566 36.97868 0.14841999999999977 42.28206 L 0.011549999999999783 42.37849 L -1.5346200000000003 41.372 L -1.5346200000000003 41.372 C -8.751090000000001 36.674369999999996 -12.97991 30.34317 -13.36129 23.66566 L -14.10518 10.640749999999999 L -14.10518 10.640749999999999 C -14.77547 -1.0954700000000006 -10.84263 -12.747460000000002 -2.6859100000000016 -23.191630000000004 L 12.298709999999998 -42.37848 z" stroke-linecap="round" />
</g>
<g transform="matrix(-0.18 -0.52 -0.8 0.27 194.34 405.34)" id="vDN_6G8lMYWHkxtTEWS0E"  >
<path style="stroke: none; stroke-width: 1; stroke-dasharray: none; stroke-linecap: butt; stroke-dashoffset: 0; stroke-linejoin: miter; stroke-miterlimit: 4; fill: rgb(73,31,188); fill-rule: nonzero; opacity: 1;" vector-effect="non-scaling-stroke"  transform=" translate(0, 0)" d="M 8.62465 -22.11297 C 12.735140000000001 -11.066500000000001 14.48601 0.3035299999999985 13.82666 11.66853 L 13.11304 23.96915 L 13.11304 23.96915 C 12.6922 31.223149999999997 8.31765 38.134609999999995 0.7904099999999996 43.43799 L 0.6535399999999996 43.53442 L -0.8926300000000005 42.52793 L -0.8926300000000005 42.52793 C -8.109100000000002 37.830299999999994 -12.33792 31.4991 -12.7193 24.821589999999997 L -13.8871 4.374499999999998 L -13.8871 4.374499999999998 C -14.28389 -2.5728800000000023 -13.10416 -9.520350000000002 -10.38691 -16.238410000000002 L 0.6535299999999999 -43.53442 z" stroke-linecap="round" />
</g>
<g transform="matrix(0.18 0.52 -0.8 0.27 191.53 205.59)" id="PKaWU7IRREdYa9M8NDFmi"  >
<path style="stroke: none; stroke-width: 1; stroke-dasharray: none; stroke-linecap: butt; stroke-dashoffset: 0; stroke-linejoin: miter; stroke-miterlimit: 4; fill: rgb(73,31,188); fill-rule: nonzero; opacity: 1;" vector-effect="non-scaling-stroke"  transform=" translate(0, 0)" d="M 8.62465 -22.11297 C 12.735140000000001 -11.066500000000001 14.48601 0.3035299999999985 13.82666 11.66853 L 13.11304 23.96915 L 13.11304 23.96915 C 12.6922 31.223149999999997 8.31765 38.134609999999995 0.7904099999999996 43.43799 L 0.6535399999999996 43.53442 L -0.8926300000000005 42.52793 L -0.8926300000000005 42.52793 C -8.109100000000002 37.830299999999994 -12.33792 31.4991 -12.7193 24.821589999999997 L -13.80935 5.735709999999997 L -13.88709 4.374489999999997 L -13.88709 4.374489999999997 C -14.28388 -2.572890000000003 -13.10415 -9.520360000000004 -10.3869 -16.23842 L 0.6535399999999996 -43.53443 z" stroke-linecap="round" />
</g>
<g transform="matrix(0.09 0.55 -0.83 0.13 189.92 164.46)" id="iEW8_f5SJhk9KojPel_gX"  >
<path style="stroke: none; stroke-width: 1; stroke-dasharray: none; stroke-linecap: butt; stroke-dashoffset: 0; stroke-linejoin: miter; stroke-miterlimit: 4; fill: rgb(73,31,188); fill-rule: nonzero; opacity: 1;" vector-effect="non-scaling-stroke"  transform=" translate(0, 0)" d="M 14.17852 -6.61822 L 12.47105 22.813219999999998 L 12.47105 22.813219999999998 C 12.05021 30.06722 7.67566 36.97868 0.14841999999999977 42.28206 L 0.011549999999999783 42.37849 L -1.5346200000000003 41.372 L -1.5346200000000003 41.372 C -8.751090000000001 36.674369999999996 -12.97991 30.34317 -13.36129 23.66566 L -14.10518 10.640749999999999 L -14.10518 10.640749999999999 C -14.77547 -1.0954700000000006 -10.84263 -12.747460000000002 -2.6859100000000016 -23.191630000000004 L 12.298709999999998 -42.37848 z" stroke-linecap="round" />
</g>
<g transform="matrix(-0.19 -0.54 -0.8 0.27 197.29 253.53)" id="88bbLoWe7hu9MJ3KUBEco"  >
<path style="stroke: none; stroke-width: 1; stroke-dasharray: none; stroke-linecap: butt; stroke-dashoffset: 0; stroke-linejoin: miter; stroke-miterlimit: 4; fill: rgb(73,31,188); fill-rule: nonzero; opacity: 1;" vector-effect="non-scaling-stroke"  transform=" translate(0, 0)" d="M 8.47203 -22.53537 C 12.685649999999999 -11.211730000000001 14.48136 0.4622700000000002 13.80441 12.1308 L 13.128770000000001 23.77675 L 13.128770000000001 23.77675 C 12.701260000000001 31.14568 8.29682 38.15251 0.7498900000000006 43.46976 L 0.6581100000000006 43.53443 L -0.8676499999999994 42.54122 L -0.8676499999999994 42.54122 C -8.08762 37.84131 -12.33729 31.43007 -12.72431 24.653730000000003 L -13.866489999999999 4.655170000000002 L -13.866489999999999 4.655170000000002 C -14.273779999999999 -2.476079999999998 -13.06435 -9.607459999999998 -10.28033 -16.490579999999998 L 0.6581100000000006 -43.534409999999994 z" stroke-linecap="round" />
</g>
<g transform="matrix(0.18 0.52 0.8 -0.27 133.45 444.47)" id="ojuoOWIzEoIX5PNE9Zksy"  >
<path style="stroke: none; stroke-width: 1; stroke-dasharray: none; stroke-linecap: butt; stroke-dashoffset: 0; stroke-linejoin: miter; stroke-miterlimit: 4; fill: rgb(73,31,188); fill-rule: nonzero; opacity: 1;" vector-effect="non-scaling-stroke"  transform=" translate(0, 0)" d="M 8.62465 -22.11297 C 12.735140000000001 -11.066500000000001 14.48601 0.3035299999999985 13.82666 11.66853 L 13.11304 23.96915 L 13.11304 23.96915 C 12.6922 31.223149999999997 8.31765 38.134609999999995 0.7904099999999996 43.43799 L 0.6535399999999996 43.53442 L -0.8926300000000005 42.52793 L -0.8926300000000005 42.52793 C -8.109100000000002 37.830299999999994 -12.33792 31.4991 -12.7193 24.821589999999997 L -13.8871 4.374499999999998 L -13.8871 4.374499999999998 C -14.28389 -2.5728800000000023 -13.10416 -9.520350000000002 -10.38691 -16.238410000000002 L 0.6535299999999999 -43.53442 z" stroke-linecap="round" />
</g>
<g transform="matrix(0.04 0.55 0.84 -0.06 127.02 393.49)" id="3kQ0txbBaJCBF5cMjL1y3"  >
<path style="stroke: none; stroke-width: 1; stroke-dasharray: none; stroke-linecap: butt; stroke-dashoffset: 0; stroke-linejoin: miter; stroke-miterlimit: 4; fill: rgb(73,31,188); fill-rule: nonzero; opacity: 1;" vector-effect="non-scaling-stroke"  transform=" translate(0, 0)" d="M 8.62465 -22.11297 C 12.735140000000001 -11.066500000000001 14.48601 0.3035299999999985 13.82666 11.66853 L 13.11304 23.96915 L 13.11304 23.96915 C 12.6922 31.223149999999997 8.31765 38.134609999999995 0.7904099999999996 43.43799 L 0.6535399999999996 43.53442 L -0.8926300000000005 42.52793 L -0.8926300000000005 42.52793 C -8.109100000000002 37.830299999999994 -12.33792 31.4991 -12.7193 24.821589999999997 L -13.8871 4.374499999999998 L -13.8871 4.374499999999998 C -14.28389 -2.5728800000000023 -13.10416 -9.520350000000002 -10.38691 -16.238410000000002 L 0.6535299999999999 -43.53442 z" stroke-linecap="round" />
</g>
<g transform="matrix(0.15 0.66 0.82 -0.19 129.04 141.97)" id="jjuc-ofOn95IyBdLHKsei"  >
<path style="stroke: none; stroke-width: 1; stroke-dasharray: none; stroke-linecap: butt; stroke-dashoffset: 0; stroke-linejoin: miter; stroke-miterlimit: 4; fill: rgb(73,31,188); fill-rule: nonzero; opacity: 1;" vector-effect="non-scaling-stroke"  transform=" translate(0, 0)" d="M 7.48226 -25.34332 C 12.37888 -12.184199999999999 14.47352 1.546990000000001 13.67745 15.268680000000003 L 13.25193 22.603230000000003 L 13.25193 22.603230000000003 C 12.78443 30.66147 8.25807 38.2186 0.7165999999999997 43.53201 L 0.7131899999999997 43.53441 L -0.8708300000000003 42.503280000000004 L -0.8708300000000003 42.503280000000004 C -7.991220000000001 37.8682 -12.306659999999999 31.002030000000005 -12.72718 23.638990000000003 L -13.749690000000001 5.7357100000000045 L -13.75792 5.591650000000005 L -13.75792 5.591650000000005 C -14.19963 -2.1423199999999953 -12.900310000000001 -9.876849999999996 -9.92266 -17.238689999999995 L 0.7131899999999991 -43.53442 z" stroke-linecap="round" />
</g>
<g transform="matrix(-0.09 0.55 0.83 0.13 123.17 89.12)" id="nZxb-6mbfm8O5k2QLT3sM"  >
<path style="stroke: none; stroke-width: 1; stroke-dasharray: none; stroke-linecap: butt; stroke-dashoffset: 0; stroke-linejoin: miter; stroke-miterlimit: 4; fill: rgb(73,31,188); fill-rule: nonzero; opacity: 1;" vector-effect="non-scaling-stroke"  transform=" translate(0, 0)" d="M 14.17852 -6.61822 L 12.47105 22.813219999999998 L 12.47105 22.813219999999998 C 12.05021 30.06722 7.67566 36.97868 0.14841999999999977 42.28206 L 0.011549999999999783 42.37849 L -1.5346200000000003 41.372 L -1.5346200000000003 41.372 C -8.751090000000001 36.674369999999996 -12.97991 30.34317 -13.36129 23.66566 L -14.10518 10.640749999999999 L -14.10518 10.640749999999999 C -14.77547 -1.0954700000000006 -10.84263 -12.747460000000002 -2.6859100000000016 -23.191630000000004 L 12.298709999999998 -42.37848 z" stroke-linecap="round" />
</g>
<g transform="matrix(0.18 0.52 0.8 -0.27 129.61 245.74)" id="Wlxil1dqyUXTmW8lmcS4U"  >
<path style="stroke: none; stroke-width: 1; stroke-dasharray: none; stroke-linecap: butt; stroke-dashoffset: 0; stroke-linejoin: miter; stroke-miterlimit: 4; fill: rgb(73,31,188); fill-rule: nonzero; opacity: 1;" vector-effect="non-scaling-stroke"  transform=" translate(0, 0)" d="M 8.62465 -22.11297 C 12.735140000000001 -11.066500000000001 14.48601 0.3035299999999985 13.82666 11.66853 L 13.11304 23.96915 L 13.11304 23.96915 C 12.6922 31.223149999999997 8.31765 38.134609999999995 0.7904099999999996 43.43799 L 0.6535399999999996 43.53442 L -0.8926300000000005 42.52793 L -0.8926300000000005 42.52793 C -8.109100000000002 37.830299999999994 -12.33792 31.4991 -12.7193 24.821589999999997 L -13.8871 4.374499999999998 L -13.8871 4.374499999999998 C -14.28389 -2.5728800000000023 -13.10416 -9.520350000000002 -10.38691 -16.238410000000002 L 0.6535299999999999 -43.53442 z" stroke-linecap="round" />
</g>
<g transform="matrix(0.04 0.55 0.84 -0.06 123.17 194.76)" id="OK7OJjOpVywA8eI3klu1e"  >
<path style="stroke: none; stroke-width: 1; stroke-dasharray: none; stroke-linecap: butt; stroke-dashoffset: 0; stroke-linejoin: miter; stroke-miterlimit: 4; fill: rgb(73,31,188); fill-rule: nonzero; opacity: 1;" vector-effect="non-scaling-stroke"  transform=" translate(0, 0)" d="M 8.62465 -22.11297 C 12.735140000000001 -11.066500000000001 14.48601 0.3035299999999985 13.82666 11.66853 L 13.11304 23.96915 L 13.11304 23.96915 C 12.6922 31.223149999999997 8.31765 38.134609999999995 0.7904099999999996 43.43799 L 0.6535399999999996 43.53442 L -0.8926300000000005 42.52793 L -0.8926300000000005 42.52793 C -8.109100000000002 37.830299999999994 -12.33792 31.4991 -12.7193 24.821589999999997 L -13.8871 4.374499999999998 L -13.8871 4.374499999999998 C -14.28389 -2.5728800000000023 -13.10416 -9.520350000000002 -10.38691 -16.238410000000002 L 0.6535299999999999 -43.53442 z" stroke-linecap="round" />
</g>
<g transform="matrix(-0.54 0.12 0.19 0.82 294.04 467.25)" id="NKheOS33FI0KHbfs-8yT8"  >
<path style="stroke: none; stroke-width: 1; stroke-dasharray: none; stroke-linecap: butt; stroke-dashoffset: 0; stroke-linejoin: miter; stroke-miterlimit: 4; fill: rgb(73,31,188); fill-rule: nonzero; opacity: 1;" vector-effect="non-scaling-stroke"  transform=" translate(0, 0)" d="M 8.62465 -22.11297 C 12.735140000000001 -11.066500000000001 14.48601 0.3035299999999985 13.82666 11.66853 L 13.11304 23.96915 L 13.11304 23.96915 C 12.6922 31.223149999999997 8.31765 38.134609999999995 0.7904099999999996 43.43799 L 0.6535399999999996 43.53442 L -0.8926300000000005 42.52793 L -0.8926300000000005 42.52793 C -8.109100000000002 37.830299999999994 -12.33792 31.4991 -12.7193 24.821589999999997 L -13.80935 5.735709999999997 L -13.88709 4.374489999999997 L -13.88709 4.374489999999997 C -14.28388 -2.572890000000003 -13.10415 -9.520360000000004 -10.3869 -16.23842 L 0.6535399999999996 -43.53443 z" stroke-linecap="round" />
</g>
<g transform="matrix(-0.55 -0.09 -0.13 0.83 352.41 461.06)" id="p5nOHcN24YQ2SIqb7ag_P"  >
<path style="stroke: none; stroke-width: 1; stroke-dasharray: none; stroke-linecap: butt; stroke-dashoffset: 0; stroke-linejoin: miter; stroke-miterlimit: 4; fill: rgb(73,31,188); fill-rule: nonzero; opacity: 1;" vector-effect="non-scaling-stroke"  transform=" translate(0, 0)" d="M 14.17852 -6.61822 L 12.47105 22.813219999999998 L 12.47105 22.813219999999998 C 12.05021 30.06722 7.67566 36.97868 0.14841999999999977 42.28206 L 0.011549999999999783 42.37849 L -1.5346200000000003 41.372 L -1.5346200000000003 41.372 C -8.751090000000001 36.674369999999996 -12.97991 30.34317 -13.36129 23.66566 L -14.10518 10.640749999999999 L -14.10518 10.640749999999999 C -14.77547 -1.0954700000000006 -10.84263 -12.747460000000002 -2.6859100000000016 -23.191630000000004 L 12.298709999999998 -42.37848 z" stroke-linecap="round" />
</g>
<g transform="matrix(-0.55 0.11 -0.16 -0.83 284.27 537.03)" id="gnlvwjwjqOpteQiUcGMf3"  >
<path style="stroke: none; stroke-width: 1; stroke-dasharray: none; stroke-linecap: butt; stroke-dashoffset: 0; stroke-linejoin: miter; stroke-miterlimit: 4; fill: rgb(73,31,188); fill-rule: nonzero; opacity: 1;" vector-effect="non-scaling-stroke"  transform=" translate(0, 0)" d="M 8.62465 -22.11297 C 12.735140000000001 -11.066500000000001 14.48601 0.3035299999999985 13.82666 11.66853 L 13.11304 23.96915 L 13.11304 23.96915 C 12.6922 31.223149999999997 8.31765 38.134609999999995 0.7904099999999996 43.43799 L 0.6535399999999996 43.53442 L -0.8926300000000005 42.52793 L -0.8926300000000005 42.52793 C -8.109100000000002 37.830299999999994 -12.33792 31.4991 -12.7193 24.821589999999997 L -13.80935 5.735709999999997 L -13.88709 4.374489999999997 L -13.88709 4.374489999999997 C -14.28388 -2.572890000000003 -13.10415 -9.520360000000004 -10.3869 -16.23842 L 0.6535399999999996 -43.53443 z" stroke-linecap="round" />
</g>
<g transform="matrix(-0.55 0.09 -0.13 -0.83 332.66 531.19)" id="tn8v9Qa87xkyb4CqxUxSO"  >
<path style="stroke: none; stroke-width: 1; stroke-dasharray: none; stroke-linecap: butt; stroke-dashoffset: 0; stroke-linejoin: miter; stroke-miterlimit: 4; fill: rgb(73,31,188); fill-rule: nonzero; opacity: 1;" vector-effect="non-scaling-stroke"  transform=" translate(0, 0)" d="M 14.17852 -6.61822 L 12.47105 22.813219999999998 L 12.47105 22.813219999999998 C 12.05021 30.06722 7.67566 36.97868 0.14841999999999977 42.28206 L 0.011549999999999783 42.37849 L -1.5346200000000003 41.372 L -1.5346200000000003 41.372 C -8.751090000000001 36.674369999999996 -12.97991 30.34317 -13.36129 23.66566 L -14.10518 10.640749999999999 L -14.10518 10.640749999999999 C -14.77547 -1.0954700000000006 -10.84263 -12.747460000000002 -2.6859100000000016 -23.191630000000004 L 12.298709999999998 -42.37848 z" stroke-linecap="round" />
</g>
<g transform="matrix(-0.52 0.18 -0.27 -0.8 373.79 522.71)" id="zU23kwObivzLl2hH_a2s5"  >
<path style="stroke: none; stroke-width: 1; stroke-dasharray: none; stroke-linecap: butt; stroke-dashoffset: 0; stroke-linejoin: miter; stroke-miterlimit: 4; fill: rgb(73,31,188); fill-rule: nonzero; opacity: 1;" vector-effect="non-scaling-stroke"  transform=" translate(0, 0)" d="M -5.00165 -31.96407 C 8.40253 -14.791139999999999 14.85654 4.36768 13.737150000000002 23.662370000000003 L 13.737150000000002 23.662370000000003 L 13.737150000000002 23.662370000000003 C 13.316310000000001 30.91637 8.941760000000002 37.827830000000006 1.4145200000000013 43.13121 L 1.2776500000000013 43.22764 L -0.26851999999999876 42.22115 L -0.26851999999999876 42.22115 C -7.484989999999999 37.523520000000005 -11.713809999999999 31.192320000000002 -12.095189999999999 24.51481 L -13.8615 -6.41169 L -13.79333 -43.22763 z" stroke-linecap="round" />
</g>
<g transform="matrix(0.55 -0.09 -0.13 -0.83 235.83 537.1)" id="apdU6PSi-OTdGHiq-38lK"  >
<path style="stroke: none; stroke-width: 1; stroke-dasharray: none; stroke-linecap: butt; stroke-dashoffset: 0; stroke-linejoin: miter; stroke-miterlimit: 4; fill: rgb(73,31,188); fill-rule: nonzero; opacity: 1;" vector-effect="non-scaling-stroke"  transform=" translate(0, 0)" d="M 8.62465 -22.11297 C 12.735140000000001 -11.066500000000001 14.48601 0.3035299999999985 13.82666 11.66853 L 13.11304 23.96915 L 13.11304 23.96915 C 12.6922 31.223149999999997 8.31765 38.134609999999995 0.7904099999999996 43.43799 L 0.6535399999999996 43.53442 L -0.8926300000000005 42.52793 L -0.8926300000000005 42.52793 C -8.109100000000002 37.830299999999994 -12.33792 31.4991 -12.7193 24.821589999999997 L -13.8871 4.374499999999998 L -13.8871 4.374499999999998 C -14.28389 -2.5728800000000023 -13.10416 -9.520350000000002 -10.38691 -16.238410000000002 L 0.6535299999999999 -43.53442 z" stroke-linecap="round" />
</g>
<g transform="matrix(-0.52 0.18 0.27 0.8 199.05 474.12)" id="i1FSgJ3J7S628KVJh1Vq1"  >
<path style="stroke: none; stroke-width: 1; stroke-dasharray: none; stroke-linecap: butt; stroke-dashoffset: 0; stroke-linejoin: miter; stroke-miterlimit: 4; fill: rgb(73,31,188); fill-rule: nonzero; opacity: 1;" vector-effect="non-scaling-stroke"  transform=" translate(0, 0)" d="M 8.62465 -22.11297 C 12.735140000000001 -11.066500000000001 14.48601 0.3035299999999985 13.82666 11.66853 L 13.11304 23.96915 L 13.11304 23.96915 C 12.6922 31.223149999999997 8.31765 38.134609999999995 0.7904099999999996 43.43799 L 0.6535399999999996 43.53442 L -0.8926300000000005 42.52793 L -0.8926300000000005 42.52793 C -8.109100000000002 37.830299999999994 -12.33792 31.4991 -12.7193 24.821589999999997 L -13.8871 4.374499999999998 L -13.8871 4.374499999999998 C -14.28389 -2.5728800000000023 -13.10416 -9.520350000000002 -10.38691 -16.238410000000002 L 0.6535299999999999 -43.53442 z" stroke-linecap="round" />
</g>
<g transform="matrix(-0.55 0.04 0.06 0.84 250.4 467.84)" id="GRjBX7t8kg4wT9EJ7hRwY"  >
<path style="stroke: none; stroke-width: 1; stroke-dasharray: none; stroke-linecap: butt; stroke-dashoffset: 0; stroke-linejoin: miter; stroke-miterlimit: 4; fill: rgb(73,31,188); fill-rule: nonzero; opacity: 1;" vector-effect="non-scaling-stroke"  transform=" translate(0, 0)" d="M 8.62465 -22.11297 C 12.735140000000001 -11.066500000000001 14.48601 0.3035299999999985 13.82666 11.66853 L 13.11304 23.96915 L 13.11304 23.96915 C 12.6922 31.223149999999997 8.31765 38.134609999999995 0.7904099999999996 43.43799 L 0.6535399999999996 43.53442 L -0.8926300000000005 42.52793 L -0.8926300000000005 42.52793 C -8.109100000000002 37.830299999999994 -12.33792 31.4991 -12.7193 24.821589999999997 L -13.8871 4.374499999999998 L -13.8871 4.374499999999998 C -14.28389 -2.5728800000000023 -13.10416 -9.520350000000002 -10.38691 -16.238410000000002 L 0.6535299999999999 -43.53442 z" stroke-linecap="round" />
</g>
</svg>