<?xml version="1.0" encoding="UTF-8" standalone="no" ?>
<!DOCTYPE svg PUBLIC "-//W3C//DTD SVG 1.1//EN" "http://www.w3.org/Graphics/SVG/1.1/DTD/svg11.dtd">
<svg xmlns="http://www.w3.org/2000/svg" xmlns:xlink="http://www.w3.org/1999/xlink" version="1.1" width="640" height="640" viewBox="0 0 640 640" xml:space="preserve">
<desc>Created with Fabric.js 4.6.0</desc>
<defs>
</defs>
<g transform="matrix(2.93 0 0 2.93 320 320)" id="xRvZ1d7tRJLQSPdygUqEC"  >
<path style="stroke: rgb(178,100,233); stroke-width: 0; stroke-dasharray: none; stroke-linecap: butt; stroke-dashoffset: 0; stroke-linejoin: miter; stroke-miterlimit: 4; fill: rgb(97,40,255); fill-rule: nonzero; opacity: 0.8;" vector-effect="non-scaling-stroke"  transform=" translate(0, 0)" d="M -102.47934 -72.48412 C -102.47934 -89.05002 -89.05001999999999 -102.47934000000001 -72.48411999999999 -102.47934000000001 L 72.67233000000002 -102.47934000000001 L 72.67233000000002 -102.47934000000001 C 89.13429000000002 -102.47934000000001 102.47934000000001 -89.13429000000001 102.47934000000001 -72.67233000000002 L 102.47934000000001 72.48411999999999 L 102.47934000000001 72.48411999999999 C 102.47934000000001 89.05001999999999 89.05002 102.47934 72.48412 102.47934 L -72.48412 102.47934 L -72.48412 102.47934 C -89.05002 102.47934 -102.47934000000001 89.05001999999999 -102.47934000000001 72.48411999999999 z" stroke-linecap="round" />
</g>
<g transform="matrix(18.66 0 0 18.69 407.56 395.16)" id="PIjRjAroq-V_zKSFQi-OK"  >
<path style="stroke: none; stroke-width: 1; stroke-dasharray: none; stroke-linecap: butt; stroke-dashoffset: 0; stroke-linejoin: miter; stroke-miterlimit: 4; fill: rgb(255,255,255); fill-rule: nonzero; opacity: 1;" vector-effect="non-scaling-stroke"  transform=" translate(-12, -12)" d="M 9 8 L 6 8 L 6 12 L 9 12 L 9 24 L 14 24 L 14 12 L 17.642 12 L 18 8 L 14 8 L 14 6.333 C 14 5.378 14.192 5 15.115 5 L 18 5 L 18 0 L 14.192 0 C 10.596 0 9 1.583 9 4.615 L 9 8 z" stroke-linecap="round" />
</g>
</svg>