<?xml version="1.0" encoding="UTF-8" standalone="no" ?>
<!DOCTYPE svg PUBLIC "-//W3C//DTD SVG 1.1//EN" "http://www.w3.org/Graphics/SVG/1.1/DTD/svg11.dtd">
<svg xmlns="http://www.w3.org/2000/svg" xmlns:xlink="http://www.w3.org/1999/xlink" version="1.1" width="4000" height="1280" viewBox="0 0 4000 1280" xml:space="preserve">
<desc>Created with Fabric.js 4.6.0</desc>
<defs>
</defs>
<g transform="matrix(19.84 0 0 6.34 1999.6 640)" id="qkztHM6lnCdu4INXMNUUN"  >
<path style="stroke: rgb(217,255,242); stroke-width: 0; stroke-dasharray: none; stroke-linecap: butt; stroke-dashoffset: 0; stroke-linejoin: miter; stroke-miterlimit: 4; fill: rgb(97,40,255); fill-rule: nonzero; opacity: 1;" vector-effect="non-scaling-stroke"  transform=" translate(0, 0)" d="M -100.75567 -100.75567 L 100.75565999999999 -100.75567 L 100.75565999999999 100.75565999999999 L -100.75567 100.75565999999999 z" stroke-linecap="round" />
</g>
<g transform="matrix(3.51 0 0 3.51 284.13 382.52)" id="o59lCYIQsZNVD_3Brk-fy"  >
<path style="stroke: rgb(215,248,45); stroke-width: 0; stroke-dasharray: none; stroke-linecap: butt; stroke-dashoffset: 0; stroke-linejoin: miter; stroke-miterlimit: 4; fill: rgb(80,31,220); fill-rule: nonzero; opacity: 1;" vector-effect="non-scaling-stroke"  transform=" translate(0, 0)" d="M 0 -80.60453 C 44.4937 -80.60453 80.60453 -44.4937 80.60453 0 C 80.60453 44.4937 44.4937 80.60453 0 80.60453 C -44.4937 80.60453 -80.60453 44.4937 -80.60453 0 C -80.60453 -44.4937 -44.4937 -80.60453 0 -80.60453 z" stroke-linecap="round" />
</g>
<g transform="matrix(1.58 0 0 2.03 1997.88 837.89)" id="yuhw6kqUuUDaqeAegzxhe"  >
<path style="stroke: rgb(27,1,92); stroke-width: 0; stroke-dasharray: none; stroke-linecap: butt; stroke-dashoffset: 0; stroke-linejoin: miter; stroke-miterlimit: 4; fill: rgb(73,26,209); fill-rule: nonzero; opacity: 1;" vector-effect="non-scaling-stroke"  transform=" translate(0, 0)" d="M -64.93506 -64.93506 L 64.93507 -64.93506 L 64.93507 64.93507 L -64.93506 64.93507 z" stroke-linecap="round" />
</g>
<g transform="matrix(1.58 0 0 2.03 1999.6 1148.6)" id="ojC4RV_d0Gj9t2JaVfW6w"  >
<path style="stroke: rgb(27,1,92); stroke-width: 0; stroke-dasharray: none; stroke-linecap: butt; stroke-dashoffset: 0; stroke-linejoin: miter; stroke-miterlimit: 4; fill: rgb(70,25,199); fill-rule: nonzero; opacity: 1;" vector-effect="non-scaling-stroke"  transform=" translate(0, 0)" d="M -64.93506 -64.93506 L 64.93507 -64.93506 L 64.93507 64.93507 L -64.93506 64.93507 z" stroke-linecap="round" />
</g>
<g transform="matrix(1.58 0 0 2.03 1997.79 508.18)" id="6K1P0bSzwhRg6Lz7xlQE3"  >
<path style="stroke: rgb(27,1,92); stroke-width: 0; stroke-dasharray: none; stroke-linecap: butt; stroke-dashoffset: 0; stroke-linejoin: miter; stroke-miterlimit: 4; fill: rgb(80,31,220); fill-rule: nonzero; opacity: 1;" vector-effect="non-scaling-stroke"  transform=" translate(0, 0)" d="M -64.93506 -64.93506 L 64.93507 -64.93506 L 64.93507 64.93507 L -64.93506 64.93507 z" stroke-linecap="round" />
</g>
<g transform="matrix(3.51 0 0 3.51 960.2 382.72)" id="l5rPoBi5gIbVieY5P0xI0"  >
<path style="stroke: rgb(215,248,45); stroke-width: 0; stroke-dasharray: none; stroke-linecap: butt; stroke-dashoffset: 0; stroke-linejoin: miter; stroke-miterlimit: 4; fill: rgb(80,31,220); fill-rule: nonzero; opacity: 1;" vector-effect="non-scaling-stroke"  transform=" translate(0, 0)" d="M 0 -80.60453 C 44.4937 -80.60453 80.60453 -44.4937 80.60453 0 C 80.60453 44.4937 44.4937 80.60453 0 80.60453 C -44.4937 80.60453 -80.60453 44.4937 -80.60453 0 C -80.60453 -44.4937 -44.4937 -80.60453 0 -80.60453 z" stroke-linecap="round" />
</g>
<g transform="matrix(3.51 0 0 3.51 1636.47 382.72)" id="UWpFWJffx0rVXnZryTRzX"  >
<path style="stroke: rgb(215,248,45); stroke-width: 0; stroke-dasharray: none; stroke-linecap: butt; stroke-dashoffset: 0; stroke-linejoin: miter; stroke-miterlimit: 4; fill: rgb(80,31,220); fill-rule: nonzero; opacity: 1;" vector-effect="non-scaling-stroke"  transform=" translate(0, 0)" d="M 0 -80.60453 C 44.4937 -80.60453 80.60453 -44.4937 80.60453 0 C 80.60453 44.4937 44.4937 80.60453 0 80.60453 C -44.4937 80.60453 -80.60453 44.4937 -80.60453 0 C -80.60453 -44.4937 -44.4937 -80.60453 0 -80.60453 z" stroke-linecap="round" />
</g>
<g transform="matrix(1 0 0 1 630.2 342.28)" id="BHranOtn8NFFalQJn63XC"  >
<path style="stroke: rgb(35,110,33); stroke-width: 0; stroke-dasharray: none; stroke-linecap: butt; stroke-dashoffset: 0; stroke-linejoin: miter; stroke-miterlimit: 4; fill: rgb(80,31,220); fill-rule: nonzero; opacity: 1;" vector-effect="non-scaling-stroke"  transform=" translate(0, 0)" d="M -110 -115.83123 L -110 -115.83123 L -110 -115.83123 C -88.30795 -84.89896 -53.61008 -65.64433 -15.884889999999999 -63.60464 C 21.8403 -61.56494000000001 58.411919999999995 -76.96623 83.3126 -105.37936 L 110 -135.83123 L 59.64736 135.83123999999998 L -101.56171 135.83123999999998 z" stroke-linecap="round" />
</g>
<g transform="matrix(-1 0 0 1 1285.2 324.37)" id="P3JEyKJbwzP3SThnx3k_n"  >
<path style="stroke: rgb(35,110,33); stroke-width: 0; stroke-dasharray: none; stroke-linecap: butt; stroke-dashoffset: 0; stroke-linejoin: miter; stroke-miterlimit: 4; fill: rgb(80,31,220); fill-rule: nonzero; opacity: 1;" vector-effect="non-scaling-stroke"  transform=" translate(0, 0)" d="M -125 -113.74685 L -125 -113.74685 L -125 -113.74685 C -102.44565 -81.58496 -66.9893 -60.855459999999994 -27.899109999999993 -56.97696 C 11.19109000000001 -53.098459999999996 50.02957000000001 -66.45647 78.46412000000001 -93.55928 L 124.99999000000001 -137.91562 L 44.64735000000002 137.91561000000002 L -116.56171999999998 137.91561000000002 z" stroke-linecap="round" />
</g>
<g transform="matrix(11.9 0 0 2.19 960.2 488.72)" id="p_Ao3W38JuKf5Z-LwSn0r"  >
<path style="stroke: rgb(110,204,2); stroke-width: 0; stroke-dasharray: none; stroke-linecap: butt; stroke-dashoffset: 0; stroke-linejoin: miter; stroke-miterlimit: 4; fill: rgb(80,31,220); fill-rule: nonzero; opacity: 1;" vector-effect="non-scaling-stroke"  transform=" translate(0, 0)" d="M -80.60453 -80.60453 L 80.60454 -80.60453 L 80.60454 80.60454 L -80.60453 80.60454 z" stroke-linecap="round" />
</g>
<g transform="matrix(3.51 0 0 3.51 283.93 686.88)" id="_ua1RepiLt_VYZQswuOSh"  >
<path style="stroke: rgb(215,248,45); stroke-width: 0; stroke-dasharray: none; stroke-linecap: butt; stroke-dashoffset: 0; stroke-linejoin: miter; stroke-miterlimit: 4; fill: rgb(73,26,209); fill-rule: nonzero; opacity: 1;" vector-effect="non-scaling-stroke"  transform=" translate(0, 0)" d="M 0 -80.60453 C 44.4937 -80.60453 80.60453 -44.4937 80.60453 0 C 80.60453 44.4937 44.4937 80.60453 0 80.60453 C -44.4937 80.60453 -80.60453 44.4937 -80.60453 0 C -80.60453 -44.4937 -44.4937 -80.60453 0 -80.60453 z" stroke-linecap="round" />
</g>
<g transform="matrix(3.51 0 0 3.51 960 687.08)" id="-sPHDUwxqnANVTlGoCs9y"  >
<path style="stroke: rgb(215,248,45); stroke-width: 0; stroke-dasharray: none; stroke-linecap: butt; stroke-dashoffset: 0; stroke-linejoin: miter; stroke-miterlimit: 4; fill: rgb(73,26,209); fill-rule: nonzero; opacity: 1;" vector-effect="non-scaling-stroke"  transform=" translate(0, 0)" d="M 0 -80.60453 C 44.4937 -80.60453 80.60453 -44.4937 80.60453 0 C 80.60453 44.4937 44.4937 80.60453 0 80.60453 C -44.4937 80.60453 -80.60453 44.4937 -80.60453 0 C -80.60453 -44.4937 -44.4937 -80.60453 0 -80.60453 z" stroke-linecap="round" />
</g>
<g transform="matrix(3.51 0 0 3.51 1636.27 687.08)" id="GO2WYy7j4NYDahidQEv8A"  >
<path style="stroke: rgb(215,248,45); stroke-width: 0; stroke-dasharray: none; stroke-linecap: butt; stroke-dashoffset: 0; stroke-linejoin: miter; stroke-miterlimit: 4; fill: rgb(73,26,209); fill-rule: nonzero; opacity: 1;" vector-effect="non-scaling-stroke"  transform=" translate(0, 0)" d="M 0 -80.60453 C 44.4937 -80.60453 80.60453 -44.4937 80.60453 0 C 80.60453 44.4937 44.4937 80.60453 0 80.60453 C -44.4937 80.60453 -80.60453 44.4937 -80.60453 0 C -80.60453 -44.4937 -44.4937 -80.60453 0 -80.60453 z" stroke-linecap="round" />
</g>
<g transform="matrix(1 0 0 1 630 646.64)" id="pJRy1VCdMZM686xF5oIAU"  >
<path style="stroke: rgb(35,110,33); stroke-width: 0; stroke-dasharray: none; stroke-linecap: butt; stroke-dashoffset: 0; stroke-linejoin: miter; stroke-miterlimit: 4; fill: rgb(73,26,209); fill-rule: nonzero; opacity: 1;" vector-effect="non-scaling-stroke"  transform=" translate(0, 0)" d="M -110 -115.83123 L -110 -115.83123 L -110 -115.83123 C -88.30795 -84.89896 -53.61008 -65.64433 -15.884889999999999 -63.60464 C 21.8403 -61.56494000000001 58.411919999999995 -76.96623 83.3126 -105.37936 L 110 -135.83123 L 59.64736 135.83123999999998 L -101.56171 135.83123999999998 z" stroke-linecap="round" />
</g>
<g transform="matrix(-1 0 0 1 1285 628.73)" id="EJHRbr_YRWqWiAnqMrnHH"  >
<path style="stroke: rgb(35,110,33); stroke-width: 0; stroke-dasharray: none; stroke-linecap: butt; stroke-dashoffset: 0; stroke-linejoin: miter; stroke-miterlimit: 4; fill: rgb(73,26,209); fill-rule: nonzero; opacity: 1;" vector-effect="non-scaling-stroke"  transform=" translate(0, 0)" d="M -125 -113.74685 L -125 -113.74685 L -125 -113.74685 C -102.44565 -81.58496 -66.9893 -60.855459999999994 -27.899109999999993 -56.97696 C 11.19109000000001 -53.098459999999996 50.02957000000001 -66.45647 78.46412000000001 -93.55928 L 124.99999000000001 -137.91562 L 44.64735000000002 137.91561000000002 L -116.56171999999998 137.91561000000002 z" stroke-linecap="round" />
</g>
<g transform="matrix(11.9 0 0 2.19 960 793.08)" id="MfaHrRHxhG4kRj2OeQmfW"  >
<path style="stroke: rgb(110,204,2); stroke-width: 0; stroke-dasharray: none; stroke-linecap: butt; stroke-dashoffset: 0; stroke-linejoin: miter; stroke-miterlimit: 4; fill: rgb(73,26,209); fill-rule: nonzero; opacity: 1;" vector-effect="non-scaling-stroke"  transform=" translate(0, 0)" d="M -80.60453 -80.60453 L 80.60454 -80.60453 L 80.60454 80.60454 L -80.60453 80.60454 z" stroke-linecap="round" />
</g>
<g transform="matrix(3.51 0 0 3.51 283.93 996.07)" id="0puL8XixMasjSlutiI7sE"  >
<path style="stroke: rgb(215,248,45); stroke-width: 0; stroke-dasharray: none; stroke-linecap: butt; stroke-dashoffset: 0; stroke-linejoin: miter; stroke-miterlimit: 4; fill: rgb(70,25,199); fill-rule: nonzero; opacity: 1;" vector-effect="non-scaling-stroke"  transform=" translate(0, 0)" d="M 0 -80.60453 C 44.4937 -80.60453 80.60453 -44.4937 80.60453 0 C 80.60453 44.4937 44.4937 80.60453 0 80.60453 C -44.4937 80.60453 -80.60453 44.4937 -80.60453 0 C -80.60453 -44.4937 -44.4937 -80.60453 0 -80.60453 z" stroke-linecap="round" />
</g>
<g transform="matrix(3.51 0 0 3.51 960 996.27)" id="uI9YmugU41U9cUc3v_jhF"  >
<path style="stroke: rgb(215,248,45); stroke-width: 0; stroke-dasharray: none; stroke-linecap: butt; stroke-dashoffset: 0; stroke-linejoin: miter; stroke-miterlimit: 4; fill: rgb(70,25,199); fill-rule: nonzero; opacity: 1;" vector-effect="non-scaling-stroke"  transform=" translate(0, 0)" d="M 0 -80.60453 C 44.4937 -80.60453 80.60453 -44.4937 80.60453 0 C 80.60453 44.4937 44.4937 80.60453 0 80.60453 C -44.4937 80.60453 -80.60453 44.4937 -80.60453 0 C -80.60453 -44.4937 -44.4937 -80.60453 0 -80.60453 z" stroke-linecap="round" />
</g>
<g transform="matrix(3.51 0 0 3.51 1636.27 996.27)" id="TO1-1bRS_L_erP-4jEGjm"  >
<path style="stroke: rgb(215,248,45); stroke-width: 0; stroke-dasharray: none; stroke-linecap: butt; stroke-dashoffset: 0; stroke-linejoin: miter; stroke-miterlimit: 4; fill: rgb(70,25,199); fill-rule: nonzero; opacity: 1;" vector-effect="non-scaling-stroke"  transform=" translate(0, 0)" d="M 0 -80.60453 C 44.4937 -80.60453 80.60453 -44.4937 80.60453 0 C 80.60453 44.4937 44.4937 80.60453 0 80.60453 C -44.4937 80.60453 -80.60453 44.4937 -80.60453 0 C -80.60453 -44.4937 -44.4937 -80.60453 0 -80.60453 z" stroke-linecap="round" />
</g>
<g transform="matrix(1 0 0 1 630 955.83)" id="bc6XMd3nziNgCfqivhDJG"  >
<path style="stroke: rgb(35,110,33); stroke-width: 0; stroke-dasharray: none; stroke-linecap: butt; stroke-dashoffset: 0; stroke-linejoin: miter; stroke-miterlimit: 4; fill: rgb(70,25,199); fill-rule: nonzero; opacity: 1;" vector-effect="non-scaling-stroke"  transform=" translate(0, 0)" d="M -110 -115.83123 L -110 -115.83123 L -110 -115.83123 C -88.30795 -84.89896 -53.61008 -65.64433 -15.884889999999999 -63.60464 C 21.8403 -61.56494000000001 58.411919999999995 -76.96623 83.3126 -105.37936 L 110 -135.83123 L 59.64736 135.83123999999998 L -101.56171 135.83123999999998 z" stroke-linecap="round" />
</g>
<g transform="matrix(-1 0 0 1 1285 937.92)" id="IEKyqdAF53vDWUDzPWmEs"  >
<path style="stroke: rgb(35,110,33); stroke-width: 0; stroke-dasharray: none; stroke-linecap: butt; stroke-dashoffset: 0; stroke-linejoin: miter; stroke-miterlimit: 4; fill: rgb(70,25,199); fill-rule: nonzero; opacity: 1;" vector-effect="non-scaling-stroke"  transform=" translate(0, 0)" d="M -125 -113.74685 L -125 -113.74685 L -125 -113.74685 C -102.44565 -81.58496 -66.9893 -60.855459999999994 -27.899109999999993 -56.97696 C 11.19109000000001 -53.098459999999996 50.02957000000001 -66.45647 78.46412000000001 -93.55928 L 124.99999000000001 -137.91562 L 44.64735000000002 137.91561000000002 L -116.56171999999998 137.91561000000002 z" stroke-linecap="round" />
</g>
<g transform="matrix(11.9 0 0 2.19 960 1102.27)" id="dVXu495DH5oOOpTJsrEyb"  >
<path style="stroke: rgb(110,204,2); stroke-width: 0; stroke-dasharray: none; stroke-linecap: butt; stroke-dashoffset: 0; stroke-linejoin: miter; stroke-miterlimit: 4; fill: rgb(70,25,199); fill-rule: nonzero; opacity: 1;" vector-effect="non-scaling-stroke"  transform=" translate(0, 0)" d="M -80.60453 -80.60453 L 80.60454 -80.60453 L 80.60454 80.60454 L -80.60453 80.60454 z" stroke-linecap="round" />
</g>
<g transform="matrix(3.51 0 0 3.51 2363.12 382.72)" id="sNc53_1hIlwkgaNP3edWF"  >
<path style="stroke: rgb(215,248,45); stroke-width: 0; stroke-dasharray: none; stroke-linecap: butt; stroke-dashoffset: 0; stroke-linejoin: miter; stroke-miterlimit: 4; fill: rgb(80,31,220); fill-rule: nonzero; opacity: 1;" vector-effect="non-scaling-stroke"  transform=" translate(0, 0)" d="M 0 -80.60453 C 44.4937 -80.60453 80.60453 -44.4937 80.60453 0 C 80.60453 44.4937 44.4937 80.60453 0 80.60453 C -44.4937 80.60453 -80.60453 44.4937 -80.60453 0 C -80.60453 -44.4937 -44.4937 -80.60453 0 -80.60453 z" stroke-linecap="round" />
</g>
<g transform="matrix(3.51 0 0 3.51 3039.19 382.92)" id="fXs9n1bBZN8-cQiyATeYK"  >
<path style="stroke: rgb(215,248,45); stroke-width: 0; stroke-dasharray: none; stroke-linecap: butt; stroke-dashoffset: 0; stroke-linejoin: miter; stroke-miterlimit: 4; fill: rgb(80,31,220); fill-rule: nonzero; opacity: 1;" vector-effect="non-scaling-stroke"  transform=" translate(0, 0)" d="M 0 -80.60453 C 44.4937 -80.60453 80.60453 -44.4937 80.60453 0 C 80.60453 44.4937 44.4937 80.60453 0 80.60453 C -44.4937 80.60453 -80.60453 44.4937 -80.60453 0 C -80.60453 -44.4937 -44.4937 -80.60453 0 -80.60453 z" stroke-linecap="round" />
</g>
<g transform="matrix(3.51 0 0 3.51 3715.46 382.92)" id="2B8A-h8u0r18yrtn9w-xG"  >
<path style="stroke: rgb(215,248,45); stroke-width: 0; stroke-dasharray: none; stroke-linecap: butt; stroke-dashoffset: 0; stroke-linejoin: miter; stroke-miterlimit: 4; fill: rgb(80,31,220); fill-rule: nonzero; opacity: 1;" vector-effect="non-scaling-stroke"  transform=" translate(0, 0)" d="M 0 -80.60453 C 44.4937 -80.60453 80.60453 -44.4937 80.60453 0 C 80.60453 44.4937 44.4937 80.60453 0 80.60453 C -44.4937 80.60453 -80.60453 44.4937 -80.60453 0 C -80.60453 -44.4937 -44.4937 -80.60453 0 -80.60453 z" stroke-linecap="round" />
</g>
<g transform="matrix(1 0 0 1 2709.19 342.48)" id="9UDmB8aeWfLtPCTB4-9MZ"  >
<path style="stroke: rgb(35,110,33); stroke-width: 0; stroke-dasharray: none; stroke-linecap: butt; stroke-dashoffset: 0; stroke-linejoin: miter; stroke-miterlimit: 4; fill: rgb(80,31,220); fill-rule: nonzero; opacity: 1;" vector-effect="non-scaling-stroke"  transform=" translate(0, 0)" d="M -110 -115.83123 L -110 -115.83123 L -110 -115.83123 C -88.30795 -84.89896 -53.61008 -65.64433 -15.884889999999999 -63.60464 C 21.8403 -61.56494000000001 58.411919999999995 -76.96623 83.3126 -105.37936 L 110 -135.83123 L 59.64736 135.83123999999998 L -101.56171 135.83123999999998 z" stroke-linecap="round" />
</g>
<g transform="matrix(1 0 0 1 2000 376.04)" id="p68gJNSm5mJnv52ChyKUD"  >
<path style="stroke: rgb(35,110,33); stroke-width: 0; stroke-dasharray: none; stroke-linecap: butt; stroke-dashoffset: 0; stroke-linejoin: miter; stroke-miterlimit: 4; fill: rgb(80,31,220); fill-rule: nonzero; opacity: 1;" vector-effect="non-scaling-stroke"  transform=" translate(0, 0)" d="M -125.58442 -142.71435 L -106.75869 -115.16657 L -106.75869 -115.16657 C -84.77929 -83.00399999999999 -49.120650000000005 -62.86014999999999 -10.22878 -60.636039999999994 C 28.6631 -58.41192999999999 66.38568 -74.35932 91.88837 -103.80651999999999 L 125.58440999999999 -142.71435 L 64.84214999999999 142.71435 L -96.36692000000001 142.71435 z" stroke-linecap="round" />
</g>
<g transform="matrix(-1 0 0 1 3364.19 324.57)" id="6JzXzqXx0eXJ_N2lzR0Ta"  >
<path style="stroke: rgb(35,110,33); stroke-width: 0; stroke-dasharray: none; stroke-linecap: butt; stroke-dashoffset: 0; stroke-linejoin: miter; stroke-miterlimit: 4; fill: rgb(80,31,220); fill-rule: nonzero; opacity: 1;" vector-effect="non-scaling-stroke"  transform=" translate(0, 0)" d="M -125 -113.74685 L -125 -113.74685 L -125 -113.74685 C -102.44565 -81.58496 -66.9893 -60.855459999999994 -27.899109999999993 -56.97696 C 11.19109000000001 -53.098459999999996 50.02957000000001 -66.45647 78.46412000000001 -93.55928 L 124.99999000000001 -137.91562 L 44.64735000000002 137.91561000000002 L -116.56171999999998 137.91561000000002 z" stroke-linecap="round" />
</g>
<g transform="matrix(11.9 0 0 2.19 3039.19 488.92)" id="uwOW9vMD4WNKf-aS27BPb"  >
<path style="stroke: rgb(110,204,2); stroke-width: 0; stroke-dasharray: none; stroke-linecap: butt; stroke-dashoffset: 0; stroke-linejoin: miter; stroke-miterlimit: 4; fill: rgb(80,31,220); fill-rule: nonzero; opacity: 1;" vector-effect="non-scaling-stroke"  transform=" translate(0, 0)" d="M -80.60453 -80.60453 L 80.60454 -80.60453 L 80.60454 80.60454 L -80.60453 80.60454 z" stroke-linecap="round" />
</g>
<g transform="matrix(3.51 0 0 3.51 2362.92 687.07)" id="HSVZhdrfFYSXquivWzqoM"  >
<path style="stroke: rgb(215,248,45); stroke-width: 0; stroke-dasharray: none; stroke-linecap: butt; stroke-dashoffset: 0; stroke-linejoin: miter; stroke-miterlimit: 4; fill: rgb(73,26,209); fill-rule: nonzero; opacity: 1;" vector-effect="non-scaling-stroke"  transform=" translate(0, 0)" d="M 0 -80.60453 C 44.4937 -80.60453 80.60453 -44.4937 80.60453 0 C 80.60453 44.4937 44.4937 80.60453 0 80.60453 C -44.4937 80.60453 -80.60453 44.4937 -80.60453 0 C -80.60453 -44.4937 -44.4937 -80.60453 0 -80.60453 z" stroke-linecap="round" />
</g>
<g transform="matrix(3.51 0 0 3.51 3038.99 687.27)" id="pooGF-mUOaji19Pj0N5RY"  >
<path style="stroke: rgb(215,248,45); stroke-width: 0; stroke-dasharray: none; stroke-linecap: butt; stroke-dashoffset: 0; stroke-linejoin: miter; stroke-miterlimit: 4; fill: rgb(73,26,209); fill-rule: nonzero; opacity: 1;" vector-effect="non-scaling-stroke"  transform=" translate(0, 0)" d="M 0 -80.60453 C 44.4937 -80.60453 80.60453 -44.4937 80.60453 0 C 80.60453 44.4937 44.4937 80.60453 0 80.60453 C -44.4937 80.60453 -80.60453 44.4937 -80.60453 0 C -80.60453 -44.4937 -44.4937 -80.60453 0 -80.60453 z" stroke-linecap="round" />
</g>
<g transform="matrix(3.51 0 0 3.51 3715.26 687.27)" id="mAm81G2x5LgVMCKY8Ze_Z"  >
<path style="stroke: rgb(215,248,45); stroke-width: 0; stroke-dasharray: none; stroke-linecap: butt; stroke-dashoffset: 0; stroke-linejoin: miter; stroke-miterlimit: 4; fill: rgb(73,26,209); fill-rule: nonzero; opacity: 1;" vector-effect="non-scaling-stroke"  transform=" translate(0, 0)" d="M 0 -80.60453 C 44.4937 -80.60453 80.60453 -44.4937 80.60453 0 C 80.60453 44.4937 44.4937 80.60453 0 80.60453 C -44.4937 80.60453 -80.60453 44.4937 -80.60453 0 C -80.60453 -44.4937 -44.4937 -80.60453 0 -80.60453 z" stroke-linecap="round" />
</g>
<g transform="matrix(1 0 0 1 2708.99 646.83)" id="VsXppfnggnCZiKtttYoIc"  >
<path style="stroke: rgb(35,110,33); stroke-width: 0; stroke-dasharray: none; stroke-linecap: butt; stroke-dashoffset: 0; stroke-linejoin: miter; stroke-miterlimit: 4; fill: rgb(73,26,209); fill-rule: nonzero; opacity: 1;" vector-effect="non-scaling-stroke"  transform=" translate(0, 0)" d="M -110 -115.83123 L -110 -115.83123 L -110 -115.83123 C -88.30795 -84.89896 -53.61008 -65.64433 -15.884889999999999 -63.60464 C 21.8403 -61.56494000000001 58.411919999999995 -76.96623 83.3126 -105.37936 L 110 -135.83123 L 59.64736 135.83123999999998 L -101.56171 135.83123999999998 z" stroke-linecap="round" />
</g>
<g transform="matrix(1 0 0 1 2010.39 690.6)" id="bIvOSZ9XxFenGuhqkPbdt"  >
<path style="stroke: rgb(35,110,33); stroke-width: 0; stroke-dasharray: none; stroke-linecap: butt; stroke-dashoffset: 0; stroke-linejoin: miter; stroke-miterlimit: 4; fill: rgb(73,26,209); fill-rule: nonzero; opacity: 1;" vector-effect="non-scaling-stroke"  transform=" translate(0, 0)" d="M -115.19481 -114.53253 L -115.19481 -114.53253 L -115.19481 -114.53253 C -94.58128 -81.86621 -59.362860000000005 -61.272079999999995 -20.78541 -59.32619 C 17.79204 -57.3803 54.903999999999996 -74.32602 78.69999 -104.75228 L 115.19480999999999 -151.41565 L 54.45254999999999 151.41565 L -106.75652000000001 151.41565 z" stroke-linecap="round" />
</g>
<g transform="matrix(-1 0 0 1 3363.99 628.92)" id="G32kTRqGRgXyzGEZ9OF_6"  >
<path style="stroke: rgb(35,110,33); stroke-width: 0; stroke-dasharray: none; stroke-linecap: butt; stroke-dashoffset: 0; stroke-linejoin: miter; stroke-miterlimit: 4; fill: rgb(73,26,209); fill-rule: nonzero; opacity: 1;" vector-effect="non-scaling-stroke"  transform=" translate(0, 0)" d="M -125 -113.74685 L -125 -113.74685 L -125 -113.74685 C -102.44565 -81.58496 -66.9893 -60.855459999999994 -27.899109999999993 -56.97696 C 11.19109000000001 -53.098459999999996 50.02957000000001 -66.45647 78.46412000000001 -93.55928 L 124.99999000000001 -137.91562 L 44.64735000000002 137.91561000000002 L -116.56171999999998 137.91561000000002 z" stroke-linecap="round" />
</g>
<g transform="matrix(11.9 0 0 2.19 3038.99 793.27)" id="g3OJFZX0md-RoSCPs9qOa"  >
<path style="stroke: rgb(110,204,2); stroke-width: 0; stroke-dasharray: none; stroke-linecap: butt; stroke-dashoffset: 0; stroke-linejoin: miter; stroke-miterlimit: 4; fill: rgb(73,26,209); fill-rule: nonzero; opacity: 1;" vector-effect="non-scaling-stroke"  transform=" translate(0, 0)" d="M -80.60453 -80.60453 L 80.60454 -80.60453 L 80.60454 80.60454 L -80.60453 80.60454 z" stroke-linecap="round" />
</g>
<g transform="matrix(3.51 0 0 3.51 2362.92 996.26)" id="yZUK16AdNYGs-5gp0sXgS"  >
<path style="stroke: rgb(215,248,45); stroke-width: 0; stroke-dasharray: none; stroke-linecap: butt; stroke-dashoffset: 0; stroke-linejoin: miter; stroke-miterlimit: 4; fill: rgb(70,25,199); fill-rule: nonzero; opacity: 1;" vector-effect="non-scaling-stroke"  transform=" translate(0, 0)" d="M 0 -80.60453 C 44.4937 -80.60453 80.60453 -44.4937 80.60453 0 C 80.60453 44.4937 44.4937 80.60453 0 80.60453 C -44.4937 80.60453 -80.60453 44.4937 -80.60453 0 C -80.60453 -44.4937 -44.4937 -80.60453 0 -80.60453 z" stroke-linecap="round" />
</g>
<g transform="matrix(3.51 0 0 3.51 3038.99 996.46)" id="mfMJQZXiZiLssBM2Xhlvi"  >
<path style="stroke: rgb(215,248,45); stroke-width: 0; stroke-dasharray: none; stroke-linecap: butt; stroke-dashoffset: 0; stroke-linejoin: miter; stroke-miterlimit: 4; fill: rgb(70,25,199); fill-rule: nonzero; opacity: 1;" vector-effect="non-scaling-stroke"  transform=" translate(0, 0)" d="M 0 -80.60453 C 44.4937 -80.60453 80.60453 -44.4937 80.60453 0 C 80.60453 44.4937 44.4937 80.60453 0 80.60453 C -44.4937 80.60453 -80.60453 44.4937 -80.60453 0 C -80.60453 -44.4937 -44.4937 -80.60453 0 -80.60453 z" stroke-linecap="round" />
</g>
<g transform="matrix(3.51 0 0 3.51 3715.26 996.46)" id="Tfe70sTvVXsM0Extmyuq3"  >
<path style="stroke: rgb(215,248,45); stroke-width: 0; stroke-dasharray: none; stroke-linecap: butt; stroke-dashoffset: 0; stroke-linejoin: miter; stroke-miterlimit: 4; fill: rgb(70,25,199); fill-rule: nonzero; opacity: 1;" vector-effect="non-scaling-stroke"  transform=" translate(0, 0)" d="M 0 -80.60453 C 44.4937 -80.60453 80.60453 -44.4937 80.60453 0 C 80.60453 44.4937 44.4937 80.60453 0 80.60453 C -44.4937 80.60453 -80.60453 44.4937 -80.60453 0 C -80.60453 -44.4937 -44.4937 -80.60453 0 -80.60453 z" stroke-linecap="round" />
</g>
<g transform="matrix(1 0 0 1 2708.99 956.02)" id="2irfVKC48Uvywr0qnSBWb"  >
<path style="stroke: rgb(35,110,33); stroke-width: 0; stroke-dasharray: none; stroke-linecap: butt; stroke-dashoffset: 0; stroke-linejoin: miter; stroke-miterlimit: 4; fill: rgb(70,25,199); fill-rule: nonzero; opacity: 1;" vector-effect="non-scaling-stroke"  transform=" translate(0, 0)" d="M -110 -115.83123 L -110 -115.83123 L -110 -115.83123 C -88.30795 -84.89896 -53.61008 -65.64433 -15.884889999999999 -63.60464 C 21.8403 -61.56494000000001 58.411919999999995 -76.96623 83.3126 -105.37936 L 110 -135.83123 L 59.64736 135.83123999999998 L -101.56171 135.83123999999998 z" stroke-linecap="round" />
</g>
<g transform="matrix(1 0 0 1 2002.6 1006.93)" id="Xr1ri-JuVT3b4-TswitHx"  >
<path style="stroke: rgb(35,110,33); stroke-width: 0; stroke-dasharray: none; stroke-linecap: butt; stroke-dashoffset: 0; stroke-linejoin: miter; stroke-miterlimit: 4; fill: rgb(70,25,199); fill-rule: nonzero; opacity: 1;" vector-effect="non-scaling-stroke"  transform=" translate(0, 0)" d="M -112.5974 -129.98708 L -104.60238 -117.52882 L -104.60238 -117.52882 C -84.36149 -85.9884 -50.21823 -66.07284 -12.8001 -63.9811 C 24.618029999999997 -61.88935 60.768249999999995 -77.87537 84.39839 -106.96331 L 112.59741000000001 -141.67540000000002 L 62.24477000000001 141.67537999999996 L -98.96429999999998 141.67537999999996 z" stroke-linecap="round" />
</g>
<g transform="matrix(-1 0 0 1 3363.99 938.11)" id="QbzEPg7yRzg3BBy83L4_W"  >
<path style="stroke: rgb(35,110,33); stroke-width: 0; stroke-dasharray: none; stroke-linecap: butt; stroke-dashoffset: 0; stroke-linejoin: miter; stroke-miterlimit: 4; fill: rgb(70,25,199); fill-rule: nonzero; opacity: 1;" vector-effect="non-scaling-stroke"  transform=" translate(0, 0)" d="M -125 -113.74685 L -125 -113.74685 L -125 -113.74685 C -102.44565 -81.58496 -66.9893 -60.855459999999994 -27.899109999999993 -56.97696 C 11.19109000000001 -53.098459999999996 50.02957000000001 -66.45647 78.46412000000001 -93.55928 L 124.99999000000001 -137.91562 L 44.64735000000002 137.91561000000002 L -116.56171999999998 137.91561000000002 z" stroke-linecap="round" />
</g>
<g transform="matrix(11.9 0 0 2.19 3038.99 1102.46)" id="z5bIXvnuBMG_4_W3Di56J"  >
<path style="stroke: rgb(110,204,2); stroke-width: 0; stroke-dasharray: none; stroke-linecap: butt; stroke-dashoffset: 0; stroke-linejoin: miter; stroke-miterlimit: 4; fill: rgb(70,25,199); fill-rule: nonzero; opacity: 1;" vector-effect="non-scaling-stroke"  transform=" translate(0, 0)" d="M -80.60453 -80.60453 L 80.60454 -80.60453 L 80.60454 80.60454 L -80.60453 80.60454 z" stroke-linecap="round" />
</g>
</svg>