<?xml version="1.0" encoding="UTF-8" standalone="no" ?>
<!DOCTYPE svg PUBLIC "-//W3C//DTD SVG 1.1//EN" "http://www.w3.org/Graphics/SVG/1.1/DTD/svg11.dtd">
<svg xmlns="http://www.w3.org/2000/svg" xmlns:xlink="http://www.w3.org/1999/xlink" version="1.1" width="640" height="640" viewBox="0 0 640 640" xml:space="preserve">
<desc>Created with Fabric.js 4.6.0</desc>
<defs>
</defs>
<g transform="matrix(2.93 0 0 2.93 320 320)" id="xRvZ1d7tRJLQSPdygUqEC"  >
<path style="stroke: rgb(178,100,233); stroke-width: 0; stroke-dasharray: none; stroke-linecap: butt; stroke-dashoffset: 0; stroke-linejoin: miter; stroke-miterlimit: 4; fill: rgb(97,40,255); fill-rule: nonzero; opacity: 0.8;" vector-effect="non-scaling-stroke"  transform=" translate(0, 0)" d="M -102.47934 -72.48412 C -102.47934 -89.05002 -89.05001999999999 -102.47934000000001 -72.48411999999999 -102.47934000000001 L 72.67233000000002 -102.47934000000001 L 72.67233000000002 -102.47934000000001 C 89.13429000000002 -102.47934000000001 102.47934000000001 -89.13429000000001 102.47934000000001 -72.67233000000002 L 102.47934000000001 72.48411999999999 L 102.47934000000001 72.48411999999999 C 102.47934000000001 89.05001999999999 89.05002 102.47934 72.48412 102.47934 L -72.48412 102.47934 L -72.48412 102.47934 C -89.05002 102.47934 -102.47934000000001 89.05001999999999 -102.47934000000001 72.48411999999999 z" stroke-linecap="round" />
</g>
<g transform="matrix(16.99 0 0 16.99 320 320)" id="2aPBiavty1BSlIamDR1Fa"  >
<path style="stroke: none; stroke-width: 1; stroke-dasharray: none; stroke-linecap: butt; stroke-dashoffset: 0; stroke-linejoin: miter; stroke-miterlimit: 4; fill: rgb(255,255,255); fill-rule: nonzero; opacity: 1;" vector-effect="non-scaling-stroke"  transform=" translate(0, 0)" d="M 0 -9.837 C 3.204 -9.837 3.584 -9.825 4.85 -9.767 C 8.102 -9.619 9.620999999999999 -8.075999999999999 9.768999999999998 -4.848 C 9.826999999999998 -3.583 9.838 -3.203 9.838 0.001000000000000334 C 9.838 3.2060000000000004 9.825999999999999 3.5850000000000004 9.768999999999998 4.8500000000000005 C 9.62 8.075000000000001 8.104999999999999 9.621 4.849999999999999 9.769 C 3.5839999999999987 9.827 3.2059999999999986 9.839 -8.881784197001252e-16 9.839 C -3.204000000000001 9.839 -3.584000000000001 9.827 -4.849000000000001 9.769 C -8.109000000000002 9.620000000000001 -9.620000000000001 8.07 -9.768 4.849 C -9.826 3.5840000000000005 -9.838000000000001 3.205 -9.838000000000001 0 C -9.838000000000001 -3.204 -9.825000000000001 -3.583 -9.768 -4.849 C -9.619000000000002 -8.076 -8.104000000000001 -9.620000000000001 -4.849000000000001 -9.768 C -3.583000000000001 -9.825000000000001 -3.204000000000001 -9.837000000000002 -8.881784197001252e-16 -9.837000000000002 z M 0 -12 C -3.259 -12 -3.667 -11.986 -4.947 -11.928 C -9.305 -11.728000000000002 -11.727 -9.31 -11.927 -4.948 C -11.985999999999999 -3.6670000000000007 -12 -3.2590000000000003 -12 0 C -12 3.259 -11.986 3.668 -11.928 4.948 C -11.728000000000002 9.306000000000001 -9.31 11.728000000000002 -4.948 11.928 C -3.6670000000000007 11.986 -3.2590000000000003 12 0 12 C 3.259 12 3.668 11.986 4.948 11.928 C 9.302 11.728000000000002 11.73 9.31 11.927 4.948 C 11.985999999999999 3.668 12 3.2590000000000003 12 0 C 12 -3.259 11.986 -3.667 11.928 -4.947 C 11.732000000000001 -9.301 9.311 -11.727 4.949000000000001 -11.927 C 3.668000000000001 -11.985999999999999 3.259000000000001 -12 8.881784197001252e-16 -12 z M 0 -6.162 C -3.403 -6.162 -6.162 -3.403 -6.162 0 C -6.162 3.403 -3.403 6.163 0 6.163 C 3.403 6.163 6.162 3.4040000000000004 6.162 0 C 6.162 -3.403 3.403 -6.162 0 -6.162 z M 0 4 C -2.209 4 -4 2.21 -4 0 C -4 -2.209 -2.209 -4 0 -4 C 2.209 -4 4 -2.209 4 0 C 4 2.21 2.209 4 0 4 z M 6.406 -7.845 C 5.609999999999999 -7.845 4.965 -7.199999999999999 4.965 -6.404999999999999 C 4.965 -5.609999999999999 5.609999999999999 -4.965 6.406 -4.965 C 7.201 -4.965 7.845 -5.609999999999999 7.845 -6.404999999999999 C 7.845 -7.199999999999999 7.201 -7.844999999999999 6.406 -7.844999999999999 z" stroke-linecap="round" />
</g>
</svg>