<?xml version="1.0" encoding="UTF-8" standalone="no" ?>
<!DOCTYPE svg PUBLIC "-//W3C//DTD SVG 1.1//EN" "http://www.w3.org/Graphics/SVG/1.1/DTD/svg11.dtd">
<svg xmlns="http://www.w3.org/2000/svg" xmlns:xlink="http://www.w3.org/1999/xlink" version="1.1" width="640" height="640" viewBox="0 0 640 640" xml:space="preserve">
<desc>Created with Fabric.js 5.3.0</desc>
<defs>
</defs>
<g transform="matrix(0.9171687391 1.173922453 -1.173922453 0.9171687391 457.9895611791 492.1851822651)" id="u7eMGPgDWdOiuPc0oXstZ"  >
<path style="stroke: rgb(3,138,110); stroke-width: 0; stroke-dasharray: none; stroke-linecap: butt; stroke-dashoffset: 0; stroke-linejoin: miter; stroke-miterlimit: 4; fill: rgb(31,7,96); fill-rule: nonzero; opacity: 1;" vector-effect="non-scaling-stroke"  transform=" translate(0, 0.000005)" d="M -22.88353 -25.68479 L 2.0828799999999994 -9.305699999999998 L 19.030459999999998 -9.157239999999998 L 32.08533 -4.605799999999998 L 42.39111 6.102420000000003 L 28.475929999999998 -1.530389999999997 L 17.280699999999996 -2.200469999999997 L 25.466379999999994 -4.458329999999997 L 32.54015999999999 0.4467500000000033 L 39.26066999999999 11.984600000000004 L 30.52382999999999 5.677480000000004 L 19.56852999999999 0.29853000000000396 L 0.8048499999999876 3.953640000000004 L -0.21786000000001238 13.478070000000004 L 11.344769999999988 25.684780000000003 L -8.14889000000001 17.204750000000004 L -7.13477000000001 -2.4095799999999947 L -16.46365000000001 -8.793149999999994 L -42.39111000000001 -20.31873999999999 z" stroke-linecap="round" />
</g>
<g transform="matrix(1.0159927185 1.0895188009 -1.0895188009 1.0159927185 445.4039736035 497.3315610606)" id="jOFxQv-NkxB57CoUtAgwN"  >
<path style="stroke: rgb(3,138,110); stroke-width: 0; stroke-dasharray: none; stroke-linecap: butt; stroke-dashoffset: 0; stroke-linejoin: miter; stroke-miterlimit: 4; fill: rgb(0,0,0); fill-rule: nonzero; opacity: 1;" vector-effect="non-scaling-stroke"  transform=" translate(0, 0)" d="M -22.88353 -25.68479 L 2.0828799999999994 -9.305699999999998 L 19.030459999999998 -9.157239999999998 L 32.08533 -4.605799999999998 L 42.39111 6.102420000000003 L 28.475929999999998 -1.530389999999997 L 17.280699999999996 -2.200469999999997 L 25.466379999999994 -4.458329999999997 L 32.54015999999999 0.4467500000000033 L 39.26066999999999 11.984600000000004 L 30.52382999999999 5.677480000000004 L 19.56852999999999 0.29853000000000396 L 0.8048499999999876 3.953640000000004 L -0.21786000000001238 13.478070000000004 L 11.344769999999988 25.684780000000003 L -8.14889000000001 17.204750000000004 L -7.13477000000001 -2.4095799999999947 L -16.46365000000001 -8.793149999999994 L -42.39111000000001 -20.31873999999999 z" stroke-linecap="round" />
</g>
<g transform="matrix(1 0 0 1 320 363.1323117553)" id="HVuYJcmH-qjFsnlQDsoaq"  >
<g style="" vector-effect="non-scaling-stroke"   >
		<g transform="matrix(1 0 0 1 0 -17.2507302917)" id="4aOBIZjwB0ejQ-PltOUAU"  >
<g style="" vector-effect="non-scaling-stroke"   >
		<g transform="matrix(0.4275570201 2.0114976305 -2.0114976305 0.4275570201 174.2926192731 -93.3734650839)" id="Rb1dT2eYDBhJh3NzQQqEx"  >
<path style="stroke: rgb(128,106,137); stroke-width: 0; stroke-dasharray: none; stroke-linecap: butt; stroke-dashoffset: 0; stroke-linejoin: miter; stroke-miterlimit: 4; fill: rgb(60,23,160); fill-rule: nonzero; opacity: 1;" vector-effect="non-scaling-stroke"  transform=" translate(0, 0)" d="M -44.58187 -40.75603 C -44.58187 -40.75603 -36.39556 -50.050160000000005 -28.296670000000002 -48.89490000000001 C -20.19778 -47.73964000000001 -3.181670000000004 -39.939310000000006 2.7832899999999974 -34.54948 C 15.392649999999998 -23.155890000000003 39.991119999999995 13.2271 39.991119999999995 13.2271 L 44.581869999999995 48.99431 L -26.41430000000001 -4.403010000000002 z" stroke-linecap="round" />
</g>
		<g transform="matrix(0.8035134355 1.892959028 -1.892959028 0.8035134355 111.9512038798 -46.5260565942)" id="zpVpV5AiYVGUoE_njuzjk"  >
<path style="stroke: rgb(128,106,137); stroke-width: 0; stroke-dasharray: none; stroke-linecap: butt; stroke-dashoffset: 0; stroke-linejoin: miter; stroke-miterlimit: 4; fill: rgb(83,47,186); fill-rule: nonzero; opacity: 1;" vector-effect="non-scaling-stroke"  transform=" translate(0, 0)" d="M -27.62287 -38.51181 L -13.512509999999999 -33.014649999999996 C -6.021269999999999 -30.097049999999996 -0.12659999999999805 -26.460119999999996 5.8383600000000015 -21.070289999999996 C 18.447720000000004 -9.676699999999997 25.80336 7.506750000000004 26.96387 24.46149 L 27.62288 38.51182 L 5.74071 25.12586 C 3.50671 23.759349999999998 1.6961500000000003 22.48023 -0.33833 20.83131 C -9.885629999999999 13.093339999999998 -15.90454 3.8986599999999996 -19.17728 -7.946860000000001 z" stroke-linecap="round" />
</g>
		<g transform="matrix(0.8364277469 1.8786474781 -1.8786474781 0.8364277469 56.6793814029 -25.2455682907)" id="wY7qKF7QiD1NFw3UR6Jsz"  >
<path style="stroke: rgb(128,106,137); stroke-width: 0; stroke-dasharray: none; stroke-linecap: butt; stroke-dashoffset: 0; stroke-linejoin: miter; stroke-miterlimit: 4; fill: rgb(23,13,52); fill-rule: nonzero; opacity: 1;" vector-effect="non-scaling-stroke"  transform=" translate(0, 0)" d="M -27.62287 -38.51181 L -13.512509999999999 -33.014649999999996 C -6.021269999999999 -30.097049999999996 -0.12659999999999805 -26.460119999999996 5.8383600000000015 -21.070289999999996 C 18.447720000000004 -9.676699999999997 25.28572 4.391740000000002 26.44623 21.346480000000003 L 27.62288 38.51182 L 5.74071 25.12586 L 5.74071 25.12586 C -6.460330000000001 17.662129999999998 -15.367920000000002 5.8394200000000005 -19.17729 -7.946859999999997 z" stroke-linecap="round" />
</g>
		<g transform="matrix(0.5322447201 1.9863643374 -1.9863643374 0.5322447201 -47.9869829122 42.0976086618)" id="-KcwyW3L8QRfOLzhYuxPh"  >
<path style="stroke: rgb(128,106,137); stroke-width: 0; stroke-dasharray: none; stroke-linecap: butt; stroke-dashoffset: 0; stroke-linejoin: miter; stroke-miterlimit: 4; fill: rgb(57,15,172); fill-rule: nonzero; opacity: 1;" vector-effect="non-scaling-stroke"  transform=" translate(0, 0)" d="M -31.9589 -34.00074 C -48.815979999999996 -58.22713 -55.63236 -76.92519 -55.63236 -76.92519 C -55.63236 -76.92519 -17.979799999999997 -62.20472 -5.985259999999997 -48.86577 C 6.009280000000004 -35.52682 7.773530000000003 -32.424899999999994 18.724100000000004 3.24109 C 29.674670000000006 38.90708 55.632360000000006 76.92519 55.632360000000006 76.92519 L 11.795970000000004 19.98039 C 11.795970000000004 19.98039 -15.101819999999996 -9.774339999999999 -31.958909999999996 -34.00074 z" stroke-linecap="round" />
</g>
		<g transform="matrix(0.5322447201 1.9863643374 -1.9863643374 0.5322447201 -94.7369035523 52.6377227648)" id="O1KULieL9fbFWzB16aLDv"  >
<path style="stroke: rgb(128,106,137); stroke-width: 0; stroke-dasharray: none; stroke-linecap: butt; stroke-dashoffset: 0; stroke-linejoin: miter; stroke-miterlimit: 4; fill: rgb(45,18,121); fill-rule: nonzero; opacity: 1;" vector-effect="non-scaling-stroke"  transform=" translate(0, 0)" d="M -26.87364 -46.03607 L -57.78112 -83.77881 L -18.768520000000002 -58.55953999999999 L -18.768520000000002 -58.55953999999999 C -7.185660000000002 -51.071929999999995 1.9847899999999967 -40.39450999999999 7.637769999999996 -27.81393999999999 L 57.781119999999994 83.77883000000001 C 57.781119999999994 83.77883000000001 17.653979999999997 37.600510000000014 1.633189999999992 -6.269619999999989 C -3.688060000000008 -20.84093999999999 -26.87363000000001 -46.03605999999999 -26.87363000000001 -46.03605999999999 z" stroke-linecap="round" />
</g>
		<g transform="matrix(0.3923864269 2.0186531685 -2.0186531685 0.3923864269 182.8414130816 -151.1421466576)" id="YJF7WaENWyHoGEl24LEsD"  >
<path style="stroke: rgb(128,106,137); stroke-width: 0; stroke-dasharray: none; stroke-linecap: butt; stroke-dashoffset: 0; stroke-linejoin: miter; stroke-miterlimit: 4; fill: rgb(85,35,223); fill-rule: nonzero; opacity: 1;" vector-effect="non-scaling-stroke"  transform=" translate(0.0000036616, -2.57e-7)" d="M -24.10857 -28.73235 C -24.10857 -28.73235 -14.492040000000001 -33.45078 -5.256979999999999 -27.04267 C 7.715290000000001 -18.04136 19.29015 4.977679999999999 22.591330000000003 20.418059999999997 L 24.238860000000003 30.406019999999998 L 5.547080000000001 22.05297 L 5.547080000000001 22.05297 C -13.109729999999999 13.715549999999999 -24.870569999999997 -5.078030000000002 -24.212619999999998 -25.50243 z" stroke-linecap="round" />
</g>
		<g transform="matrix(-0.5638920712 -1.4689890684 1.4689890684 -0.5638920712 135.7798268483 -129.7597776847)" id="3oJB5es3Qh-hi9qik_v89"  >
<path style="stroke: rgb(128,106,137); stroke-width: 0; stroke-dasharray: none; stroke-linecap: butt; stroke-dashoffset: 0; stroke-linejoin: miter; stroke-miterlimit: 4; fill: rgb(34,10,100); fill-rule: nonzero; opacity: 1;" vector-effect="non-scaling-stroke"  transform=" translate(0, 0)" d="M -27.62287 -38.51181 L -13.512509999999999 -33.014649999999996 C -6.021269999999999 -30.097049999999996 -0.12659999999999805 -26.460119999999996 5.8383600000000015 -21.070289999999996 C 18.447720000000004 -9.676699999999997 25.28572 4.391740000000002 26.44623 21.346480000000003 L 27.62288 38.51182 L 5.74071 25.12586 L 5.74071 25.12586 C -6.460330000000001 17.662129999999998 -15.367920000000002 5.8394200000000005 -19.17729 -7.946859999999997 z" stroke-linecap="round" />
</g>
		<g transform="matrix(-0.5322447201 -1.9863643374 1.9863643374 -0.5322447201 79.2259490616 -114.0219488062)" id="YhAR_uDVpMiiHy84FLCSh"  >
<path style="stroke: rgb(128,106,137); stroke-width: 0; stroke-dasharray: none; stroke-linecap: butt; stroke-dashoffset: 0; stroke-linejoin: miter; stroke-miterlimit: 4; fill: rgb(70,31,181); fill-rule: nonzero; opacity: 1;" vector-effect="non-scaling-stroke"  transform=" translate(-0.000005, -0.000005)" d="M -31.22398 -40.37677 L -9.574360000000002 -29.009439999999998 L -9.574360000000002 -29.009439999999998 C 7.595049999999997 -19.99449 20.103049999999996 -4.0829299999999975 24.80875 14.729690000000005 L 31.22399 40.376780000000004 L 5.469000000000001 28.611120000000003 L 5.469000000000001 28.611120000000003 C -10.24974 21.430320000000002 -21.58262 7.160630000000005 -25.017609999999998 -9.775829999999996 z" stroke-linecap="round" />
</g>
</g>
</g>
		<g transform="matrix(1 0 0 1 125.634327308 21.7904196738)" id="4fBIyIUIxvy6pjCMXVfQj"  >
<g style="" vector-effect="non-scaling-stroke"   >
		<g transform="matrix(1.9324174375 0.7033424274 -0.7033424274 1.9324174375 4.6562246955 6.2740229296)" id="2RT08OG5Qw76a-Jq__86R"  >
<path style="stroke: rgb(128,106,137); stroke-width: 0; stroke-dasharray: none; stroke-linecap: butt; stroke-dashoffset: 0; stroke-linejoin: miter; stroke-miterlimit: 4; fill: rgb(60,26,153); fill-rule: nonzero; opacity: 1;" vector-effect="non-scaling-stroke"  transform=" translate(-0.000005, -0.000005)" d="M -27.62287 -38.51181 L -13.512509999999999 -33.014649999999996 C -6.021269999999999 -30.097049999999996 -0.12659999999999805 -26.460119999999996 5.8383600000000015 -21.070289999999996 C 18.447720000000004 -9.676699999999997 25.28572 4.391740000000002 26.44623 21.346480000000003 L 27.62288 38.51182 L 5.74071 25.12586 L 5.74071 25.12586 C -6.460330000000001 17.662129999999998 -15.367920000000002 5.8394200000000005 -19.17729 -7.946859999999997 z" stroke-linecap="round" />
</g>
		<g transform="matrix(-1.5039818497 1.4024857641 1.4024857641 1.5039818497 0 -3.4615060277)" id="HvelMheOAae0Grc1_teuZ"  >
<path style="stroke: rgb(128,106,137); stroke-width: 0; stroke-dasharray: none; stroke-linecap: butt; stroke-dashoffset: 0; stroke-linejoin: miter; stroke-miterlimit: 4; fill: rgb(37,3,133); fill-rule: nonzero; opacity: 1;" vector-effect="non-scaling-stroke"  transform=" translate(-0.000005, -0.000005)" d="M -27.62287 -38.51181 L -13.512509999999999 -33.014649999999996 C -6.021269999999999 -30.097049999999996 -0.12659999999999805 -26.460119999999996 5.8383600000000015 -21.070289999999996 C 18.447720000000004 -9.676699999999997 25.80336 7.506750000000004 26.96387 24.46149 L 27.62288 38.51182 L 5.74071 25.12586 L 5.74071 25.12586 C -6.460330000000001 17.662129999999998 -15.367920000000002 5.8394200000000005 -19.17729 -7.946859999999997 z" stroke-linecap="round" />
</g>
</g>
</g>
		<g transform="matrix(1 0 0 1 98.0977071449 20.961868537)" id="7bXWOdZ10lkB0ElaPomeQ"  >
<g style="" vector-effect="non-scaling-stroke"   >
		<g transform="matrix(-1.3760240562 1.5282295376 1.5282295376 1.3760240562 0 -2.6430123508)" id="r6g6FUJ88eKovMz9WAKad"  >
<path style="stroke: rgb(128,106,137); stroke-width: 0; stroke-dasharray: none; stroke-linecap: butt; stroke-dashoffset: 0; stroke-linejoin: miter; stroke-miterlimit: 4; fill: rgb(83,47,186); fill-rule: nonzero; opacity: 1;" vector-effect="non-scaling-stroke"  transform=" translate(0, 0)" d="M -27.62287 -38.51181 L -13.512509999999999 -33.014649999999996 C -6.021269999999999 -30.097049999999996 -0.12659999999999805 -26.460119999999996 5.8383600000000015 -21.070289999999996 C 18.447720000000004 -9.676699999999997 25.80336 7.506750000000004 26.96387 24.46149 L 27.62288 38.51182 L 5.74071 25.12586 L 5.74071 25.12586 C -6.460330000000001 17.662129999999998 -15.367920000000002 5.8394200000000005 -19.17729 -7.946859999999997 z" stroke-linecap="round" />
</g>
		<g transform="matrix(1.9863643374 0.5322447201 -0.5322447201 1.9863643374 5.4870136121 6.6496532578)" id="RlPFO50C3_edryHYclulo"  >
<path style="stroke: rgb(128,106,137); stroke-width: 0; stroke-dasharray: none; stroke-linecap: butt; stroke-dashoffset: 0; stroke-linejoin: miter; stroke-miterlimit: 4; fill: rgb(97,40,255); fill-rule: nonzero; opacity: 1;" vector-effect="non-scaling-stroke"  transform=" translate(-0.000005, -0.000005)" d="M -27.62287 -38.51181 L -13.512509999999999 -33.014649999999996 C -6.021269999999999 -30.097049999999996 -0.12659999999999805 -26.460119999999996 5.8383600000000015 -21.070289999999996 C 18.447720000000004 -9.676699999999997 25.28572 4.391740000000002 26.44623 21.346480000000003 L 27.62288 38.51182 L 5.74071 25.12586 L 5.74071 25.12586 C -6.460330000000001 17.662129999999998 -15.367920000000002 5.8394200000000005 -19.17729 -7.946859999999997 z" stroke-linecap="round" />
</g>
</g>
</g>
		<g transform="matrix(0.8035134355 1.892959028 -1.892959028 0.8035134355 153.0558353071 -128.0477174515)" id="8tltlwJy2hazPHbYcWVER"  >
<path style="stroke: rgb(128,106,137); stroke-width: 0; stroke-dasharray: none; stroke-linecap: butt; stroke-dashoffset: 0; stroke-linejoin: miter; stroke-miterlimit: 4; fill: rgb(117,67,255); fill-rule: nonzero; opacity: 1;" vector-effect="non-scaling-stroke"  transform=" translate(0, 0)" d="M -37.82862 -30.36025 C -37.82862 -30.36025 -29.55621 -47.178020000000004 -21.45731 -46.02276 C -13.358419999999999 -44.8675 -0.980319999999999 -48.35837 4.984639999999999 -42.96853 C 17.594 -31.57494 27.23302 -17.7302 34.48191 0.333750000000002 C 41.7308 18.3977 34.94631 46.08762 34.94631 46.08762 L -18.536140000000003 -8.85866 z" stroke-linecap="round" />
</g>
		<g transform="matrix(0.7033424274 1.9324174375 -1.9324174375 0.7033424274 -3.7932506761 71.7291688536)" id="shvn2S7oeD1HSPq623M8K"  >
<path style="stroke: rgb(128,106,137); stroke-width: 0; stroke-dasharray: none; stroke-linecap: butt; stroke-dashoffset: 0; stroke-linejoin: miter; stroke-miterlimit: 4; fill: rgb(19,4,59); fill-rule: nonzero; opacity: 1;" vector-effect="non-scaling-stroke"  transform=" translate(0, 0)" d="M -29.9627 -34.72385 C -46.81978 -58.950239999999994 -57.62856 -75.0427 -57.62856 -75.0427 L -57.62856 -75.0427 L -57.62856 -75.0427 C -29.83825 -80.98729 -2.429949999999998 -63.494949999999996 3.882080000000002 -35.785779999999995 C 6.665650000000002 -23.566179999999996 9.614220000000003 -13.995149999999995 15.901600000000002 0.23969000000000307 C 30.816010000000002 34.006420000000006 57.62857 76.20208 57.62857 76.20208 L 11.021880000000003 21.293009999999995 C 11.021880000000003 21.293009999999995 -13.105609999999999 -10.497450000000004 -29.962689999999995 -34.723850000000006 z" stroke-linecap="round" />
</g>
		<g transform="matrix(0.7033424274 1.9324174375 -1.9324174375 0.7033424274 -6.6671029467 57.9211951194)" id="Nw5rlHArMlBE6gEl5icdK"  >
<path style="stroke: rgb(128,106,137); stroke-width: 0; stroke-dasharray: none; stroke-linecap: butt; stroke-dashoffset: 0; stroke-linejoin: miter; stroke-miterlimit: 4; fill: rgb(49,17,137); fill-rule: nonzero; opacity: 1;" vector-effect="non-scaling-stroke"  transform=" translate(0, 0)" d="M -48.73814 -71.47357 L 1.010709999999996 -17.354499999999994 C 1.010709999999996 -17.354499999999994 36.502019999999995 32.85443000000001 41.47188 44.917390000000005 C 46.441739999999996 56.98035 48.73814 71.47357000000001 48.73814 71.47357000000001 C 48.73814 71.47357000000001 39.6125 58.81162000000001 31.78093 47.64164000000001 C 25.645180000000003 38.89037000000001 10.99878 27.51842000000001 0.08009000000000199 18.38379000000001 L 0.08009000000000199 18.38379000000001 C -6.388899999999998 12.97179000000001 -11.609679999999997 6.223570000000008 -15.223569999999999 -1.3972799999999914 z" stroke-linecap="round" />
</g>
		<g transform="matrix(0.5668304944 1.9767728533 -1.9767728533 0.5668304944 98.0977071449 -95.965059016)" id="QNZqqzaeIOgC2fgfo0YH4"  >
<path style="stroke: rgb(128,106,137); stroke-width: 0; stroke-dasharray: none; stroke-linecap: butt; stroke-dashoffset: 0; stroke-linejoin: miter; stroke-miterlimit: 4; fill: rgb(85,35,223); fill-rule: nonzero; opacity: 1;" vector-effect="non-scaling-stroke"  transform=" translate(0.0000036616, -2.57e-7)" d="M -24.10857 -28.73235 C -24.10857 -28.73235 -14.492040000000001 -33.45078 -5.256979999999999 -27.04267 C 7.715290000000001 -18.04136 19.29015 4.977679999999999 22.591330000000003 20.418059999999997 L 24.238860000000003 30.406019999999998 L 5.547080000000001 22.05297 L 5.547080000000001 22.05297 C -13.109729999999999 13.715549999999999 -24.870569999999997 -5.078030000000002 -24.212619999999998 -25.50243 z" stroke-linecap="round" />
</g>
		<g transform="matrix(-0.8212053461 -1.4814936612 1.4814936612 -0.8212053461 143.3691248584 -119.5517393841)" id="xUjS8BHk64QCD0E8WrE3V"  >
<path style="stroke: rgb(128,106,137); stroke-width: 0; stroke-dasharray: none; stroke-linecap: butt; stroke-dashoffset: 0; stroke-linejoin: miter; stroke-miterlimit: 4; fill: rgb(34,10,100); fill-rule: nonzero; opacity: 1;" vector-effect="non-scaling-stroke"  transform=" translate(0, 0)" d="M -27.62287 -38.51181 L -13.512509999999999 -33.014649999999996 C -6.021269999999999 -30.097049999999996 -0.12659999999999805 -26.460119999999996 5.8383600000000015 -21.070289999999996 C 18.447720000000004 -9.676699999999997 25.28572 4.391740000000002 26.44623 21.346480000000003 L 27.62288 38.51182 L 5.74071 25.12586 L 5.74071 25.12586 C -6.460330000000001 17.662129999999998 -15.367920000000002 5.8394200000000005 -19.17729 -7.946859999999997 z" stroke-linecap="round" />
</g>
		<g transform="matrix(-2.0536174105 -0.107625528 -0.107625528 2.0536174105 16.6890466383 -27.0496834279)" id="J6JX_XpY7gcvDosTmNbIH"  >
<path style="stroke: rgb(128,106,137); stroke-width: 0; stroke-dasharray: none; stroke-linecap: butt; stroke-dashoffset: 0; stroke-linejoin: miter; stroke-miterlimit: 4; fill: rgb(97,40,255); fill-rule: nonzero; opacity: 1;" vector-effect="non-scaling-stroke"  transform=" translate(0, 0)" d="M -26.44533 -42.76214 C -26.44533 -42.76214 -11.021999999999998 -36.90243 2.7894400000000026 -17.646520000000002 C 16.600880000000004 1.6093899999999977 26.445320000000002 42.762139999999995 26.445320000000002 42.762139999999995 L -5.0259399999999985 18.530339999999995 L -5.0259399999999985 18.530339999999995 C -18.286649999999998 8.320049999999995 -26.12091 -7.416840000000004 -26.27452 -24.152210000000004 z" stroke-linecap="round" />
</g>
		<g transform="matrix(-2.0536174105 -0.107625528 -0.107625528 2.0536174105 61.9447992603 -118.8559604447)" id="HPQchU_6YjaV46CMD0o2P"  >
<path style="stroke: rgb(128,106,137); stroke-width: 0; stroke-dasharray: none; stroke-linecap: butt; stroke-dashoffset: 0; stroke-linejoin: miter; stroke-miterlimit: 4; fill: rgb(58,25,153); fill-rule: nonzero; opacity: 1;" vector-effect="non-scaling-stroke"  transform=" translate(0, 0)" d="M -36.96869 -51.14746 C -36.96869 -51.14746 -9.266950000000001 -31.754530000000003 4.544489999999996 -12.498620000000003 C 18.355929999999994 6.757289999999998 36.9687 51.14745 36.9687 51.14745 L -2.663470000000004 23.87442 L -2.663470000000004 23.87442 C -13.773210000000004 16.229210000000002 -21.805820000000004 4.88599 -25.328520000000005 -8.131920000000001 z" stroke-linecap="round" />
</g>
		<g transform="matrix(-0.7033424274 -1.9324174375 1.9324174375 -0.7033424274 112.8457494297 -30.8152721324)" id="6HstVEIkrE3XtUzxYqcpC"  >
<path style="stroke: rgb(128,106,137); stroke-width: 0; stroke-dasharray: none; stroke-linecap: butt; stroke-dashoffset: 0; stroke-linejoin: miter; stroke-miterlimit: 4; fill: rgb(70,31,181); fill-rule: nonzero; opacity: 1;" vector-effect="non-scaling-stroke"  transform=" translate(0, 0)" d="M -31.22398 -40.37677 L -9.574360000000002 -29.009439999999998 L -9.574360000000002 -29.009439999999998 C 7.595049999999997 -19.99449 20.103049999999996 -4.0829299999999975 24.80875 14.729690000000005 L 31.22399 40.376780000000004 L 5.469000000000001 28.611120000000003 L 5.469000000000001 28.611120000000003 C -10.24974 21.430320000000002 -21.58262 7.160630000000005 -25.017609999999998 -9.775829999999996 z" stroke-linecap="round" />
</g>
		<g transform="matrix(0.5668304944 1.9767728533 -1.9767728533 0.5668304944 127.8024641918 -164.7992838285)" id="_jNpxHCTmV5AAJfoZskn0"  >
<path style="stroke: rgb(128,106,137); stroke-width: 0; stroke-dasharray: none; stroke-linecap: butt; stroke-dashoffset: 0; stroke-linejoin: miter; stroke-miterlimit: 4; fill: rgb(85,35,223); fill-rule: nonzero; opacity: 1;" vector-effect="non-scaling-stroke"  transform=" translate(0, 0)" d="M -24.10857 -28.73235 C -24.10857 -28.73235 -14.492040000000001 -33.45078 -5.256979999999999 -27.04267 C 7.715290000000001 -18.04136 19.29015 4.977679999999999 22.591330000000003 20.418059999999997 L 24.238860000000003 30.406019999999998 L 5.547080000000001 22.05297 L 5.547080000000001 22.05297 C -13.109729999999999 13.715549999999999 -24.870569999999997 -5.078030000000002 -24.212619999999998 -25.50243 z" stroke-linecap="round" />
</g>
</g>
</g>
<g transform="matrix(1 0 0 1 516.8419596593 114.9464554619)" id="oBfaPHSPtJcSnwre852QU"  >
<g style="" vector-effect="non-scaling-stroke"   >
		<g transform="matrix(1 0 0 1 34.5818344694 -31.6514302783)" id="8paFYlIsZxLTeTq_yxloT"  >
<g style="" vector-effect="non-scaling-stroke"   >
		<g transform="matrix(-0.5503716524 -0.6796523886 -0.6796523886 0.5503716524 -3.877992727 9.0470732157)" id="bLNmvt23vESwLEJu_RV9c"  >
<path style="stroke: rgb(128,106,137); stroke-width: 0; stroke-dasharray: none; stroke-linecap: butt; stroke-dashoffset: 0; stroke-linejoin: miter; stroke-miterlimit: 4; fill: rgb(28,7,84); fill-rule: nonzero; opacity: 1;" vector-effect="non-scaling-stroke"  transform=" translate(-0.000005, 0)" d="M -20.21063 -36.94198 C -20.21063 -36.94198 -9.900759999999998 -23.104640000000003 -3.935799999999997 -17.7148 C 8.673560000000004 -6.321210000000001 17.873480000000004 2.821909999999999 19.033990000000003 19.776639999999997 L 20.21064 36.94198 L 2.2966900000000017 21.87828 L 2.2966900000000017 21.87828 C -8.585319999999998 12.72769 -15.611729999999998 -0.19370999999999938 -17.37728 -14.301660000000002 z" stroke-linecap="round" />
</g>
		<g transform="matrix(-0.6176500749 0.8501223963 -0.8501223963 -0.6176500749 0 -5.2745111677)" id="SvfVADDp_znIdVIEjR9WZ"  >
<path style="stroke: rgb(128,106,137); stroke-width: 0; stroke-dasharray: none; stroke-linecap: butt; stroke-dashoffset: 0; stroke-linejoin: miter; stroke-miterlimit: 4; fill: rgb(34,10,100); fill-rule: nonzero; opacity: 1;" vector-effect="non-scaling-stroke"  transform=" translate(0, -0.000005)" d="M -18.53893 -22.79978 L -10.63943 -35.74876 C -10.63943 -35.74876 -7.990860000000001 -24.625139999999995 -2.0259 -19.23531 C 10.58346 -7.841719999999999 16.20178 1.628700000000002 17.36228 18.58343 L 18.538929999999997 35.74877 L 1.6605999999999987 21.55592 L 1.6605999999999987 21.55592 C -9.828680000000002 11.894680000000001 -16.947400000000002 -1.98311 -18.09175 -16.95086 z" stroke-linecap="round" />
</g>
</g>
</g>
		<g transform="matrix(-0.232410957 -1.4673850318 1.4673850318 -0.232410957 -6.183076175 0.6536932669)" id="OZUe7DbAJDXHbohkA8Scl"  >
<path style="stroke: rgb(128,106,137); stroke-width: 0; stroke-dasharray: none; stroke-linecap: butt; stroke-dashoffset: 0; stroke-linejoin: miter; stroke-miterlimit: 4; fill: rgb(83,50,176); fill-rule: nonzero; opacity: 1;" vector-effect="non-scaling-stroke"  transform=" translate(0, 0)" d="M -17.43938 -40.89394 L -3.6098999999999997 -28.01168 C -3.6098999999999997 -28.01168 37.35226 -4.143609999999999 38.63205000000001 -2.2882299999999987 C 39.911840000000005 -0.4328499999999986 43.902570000000004 6.288520000000002 44.02581000000001 9.809500000000002 C 44.14905000000001 13.330480000000001 41.389160000000004 23.34802 38.12655000000001 29.16769 C 34.86394000000001 34.98736 27.51360000000001 39.57182 27.51360000000001 39.57182 L 16.17109000000001 40.887100000000004 C 12.108750000000011 41.24253 8.91302000000001 27.625830000000004 1.5788500000000099 21.039530000000003 C -3.9494099999999905 16.074990000000003 -10.99486999999999 20.110660000000003 -12.25419999999999 16.702900000000003 C -12.69177999999999 15.518790000000003 -36.428349999999995 26.820960000000003 -36.428349999999995 26.820960000000003 C -36.428349999999995 26.820960000000003 -44.61483 -10.833409999999997 -43.99641999999999 -15.036929999999995 z" stroke-linecap="round" />
</g>
		<g transform="matrix(-0.3828138291 0.2486022074 -0.2486022074 -0.3828138291 26.3332155086 -42.7020497334)" id="mBGNS9NkEwsF9-yx4B4KQ"  >
<path style="stroke: rgb(128,106,137); stroke-width: 0; stroke-dasharray: none; stroke-linecap: butt; stroke-dashoffset: 0; stroke-linejoin: miter; stroke-miterlimit: 4; fill: rgb(117,67,255); fill-rule: nonzero; opacity: 1;" vector-effect="non-scaling-stroke"  transform=" translate(0, 0)" d="M -21.82442 -17.24949 C -20.10697 -22.53067 -18.01683 -27.35038 -18.01683 -27.35038 L -13.019129999999999 -22.4871 L 3.5631000000000004 -18.07459 C 3.5631000000000004 -18.07459 21.94748 -2.3828200000000006 23.73729 3.8596199999999996 C 25.52711 10.10206 18.756120000000003 27.350369999999998 18.756120000000003 27.350369999999998 C 18.756120000000003 27.350369999999998 -5.453709999999997 21.467019999999998 -10.238229999999998 16.100769999999997 C -15.022759999999998 10.734519999999996 -23.53537 -0.22301000000000215 -24.01327 -6.322010000000002 C -24.21963 -8.955650000000002 -23.129649999999998 -13.235840000000003 -21.82441 -17.24949 z" stroke-linecap="round" />
</g>
</g>
</g>
<g transform="matrix(1 0 0 1 353.355713305 345.3348804208)" id="go6KO7ZK21fvuBKBALP-s"  >
<g style="" vector-effect="non-scaling-stroke"   >
		<g transform="matrix(0.6012436066 1.966579225 -1.966579225 0.6012436066 146.2533264281 -97.4461513516)" id="36h5v-pE9SjTjGYl-0Ke5"  >
<path style="stroke: rgb(128,106,137); stroke-width: 0; stroke-dasharray: none; stroke-linecap: butt; stroke-dashoffset: 0; stroke-linejoin: miter; stroke-miterlimit: 4; fill: rgb(117,67,255); fill-rule: nonzero; opacity: 1;" vector-effect="non-scaling-stroke"  transform=" translate(0, 0)" d="M -41.21349 -35.79009 C -41.21349 -35.79009 -33.02718 -45.08422 -24.92829 -43.928960000000004 C -16.8294 -42.773700000000005 0.18670999999999793 -34.97337 6.151669999999999 -29.583540000000003 C 18.761029999999998 -18.189950000000003 19.21248 -9.798840000000002 26.46138 8.265109999999996 C 33.71027 26.329059999999995 41.21349 44.02838 41.21349 44.02838 L -23.04591 0.5629300000000015 z" stroke-linecap="round" />
</g>
		<g transform="matrix(0.9654380744 1.8157249371 -1.8157249371 0.9654380744 91.1536543711 -67.9707892586)" id="1yQgBnMa9ITUBuwiAQeYZ"  >
<path style="stroke: rgb(128,106,137); stroke-width: 0; stroke-dasharray: none; stroke-linecap: butt; stroke-dashoffset: 0; stroke-linejoin: miter; stroke-miterlimit: 4; fill: rgb(83,47,186); fill-rule: nonzero; opacity: 1;" vector-effect="non-scaling-stroke"  transform=" translate(0, 0)" d="M -27.62287 -38.51181 L -13.512509999999999 -33.014649999999996 C -6.021269999999999 -30.097049999999996 -0.12659999999999805 -26.460119999999996 5.8383600000000015 -21.070289999999996 C 18.447720000000004 -9.676699999999997 25.80336 7.506750000000004 26.96387 24.46149 L 27.62288 38.51182 L 5.74071 25.12586 L 5.74071 25.12586 C -6.460330000000001 17.662129999999998 -15.367920000000002 5.8394200000000005 -19.17729 -7.946859999999997 z" stroke-linecap="round" />
</g>
		<g transform="matrix(0.9969798031 1.7985991758 -1.7985991758 0.9969798031 34.8886880629 -40.4384059948)" id="mHOztnBx4ZXgbutZ1hbEg"  >
<path style="stroke: rgb(128,106,137); stroke-width: 0; stroke-dasharray: none; stroke-linecap: butt; stroke-dashoffset: 0; stroke-linejoin: miter; stroke-miterlimit: 4; fill: rgb(97,40,255); fill-rule: nonzero; opacity: 1;" vector-effect="non-scaling-stroke"  transform=" translate(0, 0)" d="M -27.62287 -38.51181 L -13.512509999999999 -33.014649999999996 C -6.021269999999999 -30.097049999999996 -0.12659999999999805 -26.460119999999996 5.8383600000000015 -21.070289999999996 C 18.447720000000004 -9.676699999999997 25.28572 4.391740000000002 26.44623 21.346480000000003 L 27.62288 38.51182 L 5.74071 25.12586 L 5.74071 25.12586 C -6.460330000000001 17.662129999999998 -15.367920000000002 5.8394200000000005 -19.17729 -7.946859999999997 z" stroke-linecap="round" />
</g>
		<g transform="matrix(0.7033424274 1.9324174375 -1.9324174375 0.7033424274 -69.8377895217 58.5617624459)" id="cquPGwvk199QW0jPdBYdq"  >
<path style="stroke: rgb(128,106,137); stroke-width: 0; stroke-dasharray: none; stroke-linecap: butt; stroke-dashoffset: 0; stroke-linejoin: miter; stroke-miterlimit: 4; fill: rgb(34,10,100); fill-rule: nonzero; opacity: 1;" vector-effect="non-scaling-stroke"  transform=" translate(0, 0)" d="M -31.9589 -34.00074 C -48.815979999999996 -58.22713 -55.63236 -76.92519 -55.63236 -76.92519 L -40.32101 -71.35231 L -40.32101 -71.35231 C -22.223470000000002 -64.76479 -7.765180000000001 -50.81663 -0.5321300000000022 -32.96728 C 4.037889999999998 -21.68963 5.690109999999998 -17.63691 13.905399999999998 0.9627999999999943 C 28.819809999999997 34.72953 55.63237 76.92518999999999 55.63237 76.92518999999999 L 11.79598 19.980389999999986 C 11.79598 19.980389999999986 -15.10181 -9.774340000000013 -31.9589 -34.000740000000015 z" stroke-linecap="round" />
</g>
		<g transform="matrix(0.7033424274 1.9324174375 -1.9324174375 0.7033424274 -86.7981038447 47.0066830105)" id="M0YpH5i70EVkHtQKsEdlL"  >
<path style="stroke: rgb(128,106,137); stroke-width: 0; stroke-dasharray: none; stroke-linecap: butt; stroke-dashoffset: 0; stroke-linejoin: miter; stroke-miterlimit: 4; fill: rgb(108,59,244); fill-rule: nonzero; opacity: 1;" vector-effect="non-scaling-stroke"  transform=" translate(0, 0)" d="M -50.61329 -66.32166 L -11.25002 -40.875699999999995 L -11.25002 -40.875699999999995 C 0.1138300000000001 -33.52965999999999 9.16459 -23.115159999999996 14.854320000000001 -10.838009999999993 L 50.61328 66.32166000000001 L 0.8076100000000039 -1.3190899999999885 z" stroke-linecap="round" />
</g>
		<g transform="matrix(0.5668304944 1.9767728533 -1.9767728533 0.5668304944 143.2702803331 -154.0606775639)" id="N8idiUY6bfRhLGL_3f2Nf"  >
<path style="stroke: rgb(128,106,137); stroke-width: 0; stroke-dasharray: none; stroke-linecap: butt; stroke-dashoffset: 0; stroke-linejoin: miter; stroke-miterlimit: 4; fill: rgb(85,35,223); fill-rule: nonzero; opacity: 1;" vector-effect="non-scaling-stroke"  transform=" translate(0, 0)" d="M -24.10857 -28.73235 C -24.10857 -28.73235 -14.492040000000001 -33.45078 -5.256979999999999 -27.04267 C 7.715290000000001 -18.04136 19.29015 4.977679999999999 22.591330000000003 20.418059999999997 L 24.238860000000003 30.406019999999998 L 5.547080000000001 22.05297 L 5.547080000000001 22.05297 C -13.109729999999999 13.715549999999999 -24.870569999999997 -5.078030000000002 -24.212619999999998 -25.50243 z" stroke-linecap="round" />
</g>
		<g transform="matrix(-0.689777125 -1.4142526892 1.4142526892 -0.689777125 103.7934151147 -154.5411733245)" id="fo_kLTmxmGpTkYdf8ENe_"  >
<path style="stroke: rgb(128,106,137); stroke-width: 0; stroke-dasharray: none; stroke-linecap: butt; stroke-dashoffset: 0; stroke-linejoin: miter; stroke-miterlimit: 4; fill: rgb(34,10,100); fill-rule: nonzero; opacity: 1;" vector-effect="non-scaling-stroke"  transform=" translate(0, 0)" d="M -27.62287 -38.51181 L -13.512509999999999 -33.014649999999996 C -6.021269999999999 -30.097049999999996 -0.12659999999999805 -26.460119999999996 5.8383600000000015 -21.070289999999996 C 18.447720000000004 -9.676699999999997 25.28572 4.391740000000002 26.44623 21.346480000000003 L 27.62288 38.51182 L 5.74071 25.12586 L 5.74071 25.12586 C -6.460330000000001 17.662129999999998 -15.367920000000002 5.8394200000000005 -19.17729 -7.946859999999997 z" stroke-linecap="round" />
</g>
		<g transform="matrix(-0.7033424274 -1.9324174375 1.9324174375 -0.7033424274 43.2843428508 -108.0510505454)" id="1Vnviga8E1m8Iq4KGvF0A"  >
<path style="stroke: rgb(128,106,137); stroke-width: 0; stroke-dasharray: none; stroke-linecap: butt; stroke-dashoffset: 0; stroke-linejoin: miter; stroke-miterlimit: 4; fill: rgb(70,31,181); fill-rule: nonzero; opacity: 1;" vector-effect="non-scaling-stroke"  transform=" translate(-0.000005, -0.000005)" d="M -31.22398 -40.37677 L -9.574360000000002 -29.009439999999998 L -9.574360000000002 -29.009439999999998 C 7.595049999999997 -19.99449 20.103049999999996 -4.0829299999999975 24.80875 14.729690000000005 L 31.22399 40.376780000000004 L 5.469000000000001 28.611120000000003 L 5.469000000000001 28.611120000000003 C -10.24974 21.430320000000002 -21.58262 7.160630000000005 -25.017609999999998 -9.775829999999996 z" stroke-linecap="round" />
</g>
</g>
</g>
</svg>