<?xml version="1.0" encoding="UTF-8" standalone="no" ?>
<!DOCTYPE svg PUBLIC "-//W3C//DTD SVG 1.1//EN" "http://www.w3.org/Graphics/SVG/1.1/DTD/svg11.dtd">
<svg xmlns="http://www.w3.org/2000/svg" xmlns:xlink="http://www.w3.org/1999/xlink" version="1.1" width="640" height="640" viewBox="0 0 640 640" xml:space="preserve">
<desc>Created with Fabric.js 4.6.0</desc>
<defs>
</defs>
<g transform="matrix(2.93 0 0 2.93 320 320)" id="xRvZ1d7tRJLQSPdygUqEC"  >
<path style="stroke: rgb(178,100,233); stroke-width: 0; stroke-dasharray: none; stroke-linecap: butt; stroke-dashoffset: 0; stroke-linejoin: miter; stroke-miterlimit: 4; fill: rgb(97,40,255); fill-rule: nonzero; opacity: 0.8;" vector-effect="non-scaling-stroke"  transform=" translate(0, 0)" d="M -102.47934 -72.48412 C -102.47934 -89.05002 -89.05001999999999 -102.47934000000001 -72.48411999999999 -102.47934000000001 L 72.67233000000002 -102.47934000000001 L 72.67233000000002 -102.47934000000001 C 89.13429000000002 -102.47934000000001 102.47934000000001 -89.13429000000001 102.47934000000001 -72.67233000000002 L 102.47934000000001 72.48411999999999 L 102.47934000000001 72.48411999999999 C 102.47934000000001 89.05001999999999 89.05002 102.47934 72.48412 102.47934 L -72.48412 102.47934 L -72.48412 102.47934 C -89.05002 102.47934 -102.47934000000001 89.05001999999999 -102.47934000000001 72.48411999999999 z" stroke-linecap="round" />
</g>
<g transform="matrix(8.32 0 0 8.32 320 320)" id="N3dWkrZiVEascskdaPwcv"  >
<path style="stroke: none; stroke-width: 1; stroke-dasharray: none; stroke-linecap: butt; stroke-dashoffset: 0; stroke-linejoin: miter; stroke-miterlimit: 10; fill: rgb(255,255,255); fill-rule: nonzero; opacity: 1;" vector-effect="non-scaling-stroke"  transform=" translate(0, 0)" d="M 18.0015 -11.071 C 16.6785 -10.485 15.2555 -10.094 13.7545 -9.908999999999999 C 15.2805 -10.815 16.4545 -12.259999999999998 17.0055 -13.966999999999999 C 15.5775 -13.129999999999999 13.995500000000002 -12.514999999999999 12.312500000000002 -12.190999999999999 C 10.968500000000002 -13.616 9.0515 -14.5 6.927500000000002 -14.5 C 2.847500000000002 -14.5 -0.4594999999999976 -11.222 -0.4594999999999976 -7.18 C -0.4594999999999976 -6.608 -0.3924999999999976 -6.051 -0.26649999999999757 -5.51 C -6.404499999999998 -5.818 -11.848499999999998 -8.736 -15.490499999999997 -13.164 C -16.130499999999998 -12.081999999999999 -16.490499999999997 -10.815 -16.490499999999997 -9.478 C -16.490499999999997 -6.936999999999999 -15.189499999999997 -4.7 -13.205499999999997 -3.3819999999999997 C -14.416499999999997 -3.4189999999999996 -15.556499999999996 -3.756 -16.554499999999997 -4.295999999999999 C -16.554499999999997 -4.273999999999999 -16.554499999999997 -4.241 -16.554499999999997 -4.209999999999999 C -16.554499999999997 -0.6589999999999989 -14.007499999999997 2.298000000000001 -10.631499999999997 2.971000000000001 C -11.248499999999996 3.140000000000001 -11.900499999999997 3.234000000000001 -12.572499999999998 3.234000000000001 C -13.049499999999998 3.234000000000001 -13.514499999999998 3.180000000000001 -13.964499999999997 3.099000000000001 C -13.024499999999998 6.001000000000001 -10.297499999999998 8.122 -7.066499999999998 8.185000000000002 C -9.594499999999998 10.145000000000003 -12.778499999999998 11.319000000000003 -16.240499999999997 11.319000000000003 C -16.838499999999996 11.319000000000003 -17.423499999999997 11.285000000000002 -18.001499999999997 11.215000000000003 C -14.730499999999996 13.286000000000003 -10.846499999999995 14.500000000000004 -6.677499999999997 14.500000000000004 C 6.907500000000004 14.500000000000004 14.339500000000003 3.344000000000003 14.339500000000003 -6.333999999999996 C 14.339500000000003 -6.650999999999996 14.329500000000003 -6.966999999999996 14.314500000000002 -7.278999999999996 C 15.764500000000002 -8.302999999999997 17.0145 -9.594999999999995 18.001500000000004 -11.070999999999996" stroke-linecap="round" />
</g>
</svg>