<?xml version="1.0" encoding="UTF-8" standalone="no" ?>
<!DOCTYPE svg PUBLIC "-//W3C//DTD SVG 1.1//EN" "http://www.w3.org/Graphics/SVG/1.1/DTD/svg11.dtd">
<svg xmlns="http://www.w3.org/2000/svg" xmlns:xlink="http://www.w3.org/1999/xlink" version="1.1" width="640" height="640" viewBox="0 0 640 640" xml:space="preserve">
<desc>Created with Fabric.js 4.6.0</desc>
<defs>
</defs>
<g transform="matrix(2.93 0 0 2.93 320 320)" id="xRvZ1d7tRJLQSPdygUqEC"  >
<path style="stroke: rgb(178,100,233); stroke-width: 0; stroke-dasharray: none; stroke-linecap: butt; stroke-dashoffset: 0; stroke-linejoin: miter; stroke-miterlimit: 4; fill: rgb(97,40,255); fill-rule: nonzero; opacity: 0.8;" vector-effect="non-scaling-stroke"  transform=" translate(0, 0)" d="M -102.47934 -72.48412 C -102.47934 -89.05002 -89.05001999999999 -102.47934000000001 -72.48411999999999 -102.47934000000001 L 72.67233000000002 -102.47934000000001 L 72.67233000000002 -102.47934000000001 C 89.13429000000002 -102.47934000000001 102.47934000000001 -89.13429000000001 102.47934000000001 -72.67233000000002 L 102.47934000000001 72.48411999999999 L 102.47934000000001 72.48411999999999 C 102.47934000000001 89.05001999999999 89.05002 102.47934 72.48412 102.47934 L -72.48412 102.47934 L -72.48412 102.47934 C -89.05002 102.47934 -102.47934000000001 89.05001999999999 -102.47934000000001 72.48411999999999 z" stroke-linecap="round" />
</g>
<g transform="matrix(15.33 0 0 15.33 320 320)" id="OnCDQwKMSKUpGdqVBSANZ"  >
<path style="stroke: none; stroke-width: 1; stroke-dasharray: none; stroke-linecap: butt; stroke-dashoffset: 0; stroke-linejoin: miter; stroke-miterlimit: 4; fill: rgb(255,255,255); fill-rule: nonzero; opacity: 1;" vector-effect="non-scaling-stroke"  transform=" translate(0, 0)" d="M -11.943 12 L -10.256 5.837 C -11.297 4.0329999999999995 -11.844000000000001 1.9879999999999995 -11.843 -0.10899999999999999 C -11.84 -6.665 -6.505 -12 0.05000000000000071 -12 C 3.2310000000000008 -11.999 6.2170000000000005 -10.76 8.463000000000001 -8.512 C 10.708000000000002 -6.264 11.944 -3.2760000000000007 11.943000000000001 -0.09800000000000075 C 11.940000000000001 6.459 6.605000000000001 11.793999999999999 0.05000000000000071 11.793999999999999 C -1.9399999999999993 11.793 -3.9009999999999994 11.293999999999999 -5.637999999999999 10.345999999999998 z M -5.346 8.193 C -3.67 9.187999999999999 -2.0700000000000003 9.783999999999999 0.04600000000000026 9.785 C 5.494000000000001 9.785 9.931999999999999 5.351 9.934999999999999 -0.09999999999999964 C 9.937 -5.561999999999999 5.519999999999999 -9.99 0.053999999999998494 -9.991999999999999 C -5.3980000000000015 -9.991999999999999 -9.833000000000002 -5.557999999999999 -9.835 -0.10799999999999876 C -9.836 2.1170000000000013 -9.184000000000001 3.7830000000000013 -8.089 5.526000000000002 L -9.088000000000001 9.174000000000001 L -5.346000000000001 8.193000000000001 z M 6.041 2.729 C 5.9670000000000005 2.605 5.769 2.531 5.471 2.382 C 5.174 2.233 3.713 1.5140000000000002 3.44 1.415 C 3.168 1.316 2.9699999999999998 1.266 2.771 1.564 C 2.573 1.861 2.003 2.531 1.83 2.729 C 1.657 2.927 1.483 2.952 1.186 2.803 C 0.889 2.654 -0.06899999999999995 2.3409999999999997 -1.2040000000000002 1.3279999999999998 C -2.087 0.5399999999999998 -2.684 -0.43300000000000005 -2.857 -0.7310000000000003 C -3.0300000000000002 -1.0280000000000002 -2.875 -1.1890000000000003 -2.7270000000000003 -1.3370000000000002 C -2.5930000000000004 -1.4700000000000002 -2.43 -1.6840000000000002 -2.281 -1.858 C -2.1300000000000003 -2.0300000000000002 -2.081 -2.154 -1.981 -2.353 C -1.8820000000000001 -2.551 -1.931 -2.725 -2.0060000000000002 -2.874 C -2.0810000000000004 -3.0220000000000002 -2.6750000000000003 -4.485 -2.922 -5.08 C -3.164 -5.659 -3.4090000000000003 -5.581 -3.591 -5.59 L -4.1610000000000005 -5.6 C -4.359000000000001 -5.6 -4.681000000000001 -5.526 -4.953 -5.228 C -5.2250000000000005 -4.93 -5.993 -4.212 -5.993 -2.7489999999999997 C -5.993 -1.2859999999999996 -4.928000000000001 0.12700000000000022 -4.78 0.3250000000000002 C -4.631 0.5230000000000001 -2.685 3.5250000000000004 0.2959999999999994 4.812 C 1.0049999999999994 5.118 1.5589999999999993 5.301 1.9899999999999993 5.438000000000001 C 2.701999999999999 5.664000000000001 3.3499999999999996 5.632000000000001 3.861999999999999 5.556000000000001 C 4.432999999999999 5.471000000000001 5.619999999999999 4.837000000000001 5.8679999999999986 4.143000000000001 C 6.115999999999999 3.448000000000001 6.115999999999999 2.8530000000000006 6.040999999999999 2.729000000000001 z" stroke-linecap="round" />
</g>
</svg>